<svg xmlns="http://www.w3.org/2000/svg" viewBox="0 0 583.85535 220.06158" height="220.062" width="583.855"><path d="M396.722 218.812c.288-.688 21.68-50.075 47.538-109.75L491.275.562l12.692-.28L516.657 0l-.496 2.28c-.38 1.744-60.627 141.453-89.925 208.532l-4.04 9.25h-12.998c-10.01 0-12.878-.288-12.475-1.25zm-349.057-2.8c-5.637-.504-14.412-1.788-19.5-2.854-8.552-1.792-24.38-6.953-27.65-9.015-1.147-.724-.534-3.365 3.42-14.732 2.65-7.616 4.912-13.98 5.027-14.144.115-.163 5.394 1.088 11.732 2.78 16.634 4.44 26.805 6.015 38.72 6 28.312-.037 43.454-11.22 44.777-33.07 1.01-16.66-6.31-28.13-21.684-33.97-12.44-4.728-27.15-4.34-42.634 1.127l-8.515 3.005-10.56-5.757-10.56-5.755.56-5.032c.308-2.767 1.95-23.48 3.647-46.03 1.697-22.55 3.293-42.014 3.546-43.25l.46-2.25H137.413v49h-33v-21H52.505l-.51 3.25c-.28 1.786-.985 10.224-1.566 18.75-.582 8.524-1.307 17.58-1.613 20.122l-.555 4.623 5.327-1.538c3.826-1.104 9.973-1.54 21.826-1.544 13.872-.006 17.765.34 24.442 2.172 24.966 6.852 41.24 23 46.047 45.692 1.88 8.884 1.89 22.983.02 31.972-1.982 9.522-8.573 22.257-14.96 28.903-9.76 10.158-24.227 17.602-40.876 21.033-9.817 2.023-29.023 2.708-42.42 1.513zm175.248-1.457c-34.33-7.038-53.894-30.22-60.003-71.096-1.933-12.935-2.22-41.892-.54-54.398C165.815 63.4 176.3 40.44 190.33 27.824c6.35-5.71 18.415-12.007 28.638-14.947 6.796-1.955 10.254-2.285 23.943-2.28 18.832.003 24.292 1.154 38.432 8.1 13.877 6.816 22.048 15.275 29.454 30.492 9.61 19.746 12.598 34.922 12.607 64.022.007 22.14-2.04 36.3-7.426 51.372-9.227 25.817-26.432 42.683-50.067 49.082-8.392 2.272-33.703 2.795-43 .89zm33.936-32.918c16.474-8.06 23.557-28.682 23.553-68.575-.003-27.033-2.15-40.308-8.656-53.5-10.863-22.028-39.72-24.688-54.524-5.027-10.014 13.3-14.547 39.782-12.697 74.168 1.803 33.524 10.968 50.642 29.62 55.33 6.582 1.653 16.583.598 22.703-2.396zm257.826 31.91c-18.813-4.087-31.775-18.727-35.894-40.54-2.315-12.26-1.48-35.806 1.613-45.445 3.264-10.173 6.564-16.14 12.255-22.157 9.678-10.233 24.2-15.02 42.666-14.063 25.715 1.334 39.8 12.7 46.737 37.72 1.41 5.088 1.802 10.193 1.802 23.5 0 18.71-1.082 24.692-6.55 36.198-6.092 12.822-18.936 22.736-32.78 25.303-7.41 1.374-22.338 1.116-29.85-.516zm25.37-23.404c4.27-2.603 7.75-7.506 9.99-14.08 1.555-4.556 1.877-8.51 1.877-23 0-19.04-1.167-25.038-6.177-31.752-8.277-11.09-26.16-8.63-32.314 4.45-7.892 16.775-5.954 52.447 3.322 61.137 5.84 5.47 17.087 7.037 23.303 3.246zM364.825 133.64c-13.98-3.186-25.816-12.578-31.416-24.93-4.786-10.554-6.294-20.608-5.778-38.525.394-13.688.788-16.614 3.182-23.623 3.245-9.503 6.524-15.377 11.75-21.047 12.504-13.565 41.214-18.37 62.072-10.387 12.304 4.708 21.516 15.26 26.395 30.232 2.292 7.035 2.74 10.413 3.142 23.752.36 11.96.093 17.386-1.164 23.5-1.808 8.795-6.998 20.645-11.57 26.42-3.958 4.995-12.156 10.503-19.525 13.115-7.77 2.754-27.987 3.568-37.09 1.494zm23.905-22.698c4.36-2.236 8.73-7.392 10.677-12.595 5.256-14.046 4.615-40.584-1.284-53.166-5.628-12.007-23.145-13.71-32.058-3.116-3.904 4.64-6.7 14.937-7.33 26.998-1.157 22.19 3.647 37.352 13.178 41.588 3.684 1.637 13.847 1.814 16.816.292z" fill="#fff"/></svg>