<svg xmlns="http://www.w3.org/2000/svg" width="494.799" height="317.953" viewBox="0 0 494.79904 317.95328"><path d="M105.126 315.703c.3-1.237 3.044-15.102 6.1-30.81 11.81-60.725 12.82-64.052 22.286-73.39 7.432-7.334 15.725-12.295 43.642-26.11 14.22-7.036 26.483-13.42 27.25-14.188.767-.767 1.395-3.336 1.395-5.708v-4.313l5.626-.703 5.628-.702-.634-5.393c-.547-4.65-1.243-6-5.06-9.82-4.492-4.49-7.56-11.68-7.56-17.71 0-3.952-.97-5.902-2.934-5.902-3.205 0-6.14-4.44-7.024-10.626-.462-3.23-1.424-8.676-2.137-12.102-1.15-5.516-1.103-6.634.397-9.78.932-1.955 2.344-3.803 3.14-4.108 1.19-.457.93-1.95-1.5-8.537-2.662-7.22-2.942-9.146-2.935-20.165.01-15.507 1.305-23.653 4.96-31.182 3.18-6.548 6.877-9.5 11.905-9.5 2.32 0 2.924-.366 2.486-1.507-1.695-4.416 6.47-9.79 18.316-12.058 22.104-4.23 45.747 1.455 56.693 13.63 8.374 9.313 11.177 22.93 10.466 50.85l-.402 15.797 2.724 1.563c4.965 2.85 4.822 12.694-.386 26.613-2.147 5.74-6.517 11.113-9.036 11.113-1.016 0-1.744 2.285-2.553 8.004-1.29 9.11-2.85 12.698-7.062 16.243-2.818 2.37-2.928 2.763-2.405 8.537.59 6.496 1.296 7.172 7.536 7.203 2.628.013 2.75.232 2.75 4.974 0 3.796.506 5.434 2.16 6.973 3.72 3.467 17.886 9.785 29.34 13.086 19.707 5.68 36.328 15.03 41.322 23.248 1.08 1.78 5.598 18.083 10.04 36.233 9.077 37.1 13.026 55.83 13.86 65.75l.567 6.75H104.58l.544-2.25zm283.742-41c-.656-3.437-4.094-17.95-7.642-32.25-3.547-14.3-6.912-28.025-7.477-30.5-2.3-10.06-12.858-20.87-27.14-27.78-4.23-2.046-7.682-4.17-7.672-4.72.057-3.12 5.914-10.264 10.657-13l5.203-3-.25-5.866-.25-5.867-12-3.75c-6.6-2.06-13.706-4.47-15.792-5.35l-3.793-1.6 1.628-3.147c.896-1.73 2.283-5.008 3.084-7.283l1.456-4.137-5.322 5.25c-2.927 2.888-5.618 5.25-5.98 5.25-.36 0 1.535-4.612 4.213-10.25 5.988-12.602 7.364-17.903 9.927-38.256 3.53-28.02 6.4-41.405 10.598-49.393 4.636-8.822 9.444-13.224 19.85-18.172 15.373-7.31 28.294-7.288 43.526.08 12.2 5.898 17.51 11.538 22.424 23.82 1.945 4.86 5.81 26.213 8.266 45.67 1.99 15.772 5.097 26.915 10.487 37.637 2.232 4.438 3.83 8.298 3.552 8.577-.28.28-3-1.85-6.048-4.733l-5.54-5.24 1.646 4.88c.905 2.684 2.3 5.893 3.1 7.132 1.388 2.15 1.278 2.327-2.412 3.904-2.127.91-9.267 3.33-15.867 5.38l-12 3.726-.297 5.485-.296 5.486 5.13 3.292c3.512 2.253 6.386 5.278 9.106 9.585 2.202 3.487 4.95 6.582 6.165 6.94 1.205.357 7.59 3.3 14.19 6.54 10.373 5.09 17.226 7.396 30.732 10.343 3.445.752 9.09 6.345 11.955 11.844 1.934 3.712 2.35 6.95 3.443 26.723.683 12.375 1.27 27.113 1.307 32.75l.064 10.25H390.06l-1.192-6.25zM.24 268.327c-.96-7.68 1.105-31.977 3.6-42.35 2.66-11.068 7.846-21.695 13.35-27.357 5.23-5.384 14.378-10.158 28.11-14.672 12.112-3.982 28.275-10.78 38.47-16.18 4.14-2.192 7.666-4.123 7.834-4.29.168-.166 1.168-4.51 2.222-9.657l1.917-9.353-2.366-3.575c-4.464-6.745-8.732-16.19-10.535-23.31-1.473-5.82-2.198-7.188-3.948-7.45-3.792-.572-5.225-4.4-6.267-16.736-.9-10.653-.83-11.785.846-13.643 1.604-1.78 1.826-3.927 1.826-17.662 0-14.204.21-16.095 2.3-20.637 3.088-6.71 7.066-10.704 17.2-17.274 4.674-3.032 10.187-6.835 12.25-8.453l3.75-2.942v6.28l6.75-6.758 6.75-6.757.52 5.14c.493 4.842 1.98 8.546 1.98 4.93 0-2.554 1.427-2.114 13.166 4.056 25.214 13.252 29.84 20.698 28.353 45.63l-.713 11.92 2.846 2.276c2.836 2.27 2.845 2.312 2.556 12.562-.32 11.29-1.564 15.223-4.97 15.71-1.483.21-2.44 1.22-2.84 3-2.69 11.986-6.56 20.67-12.624 28.342l-4.074 5.155 1.2 8.092c.66 4.45 1.425 8.853 1.7 9.784.272.93 5.24 4.068 11.036 6.97 9.538 4.777 10.318 5.37 8.2 6.24-9.377 3.85-25.612 12.22-32.03 16.516-17 11.376-24.967 22.87-28.83 41.58-1.135 5.5-3.548 16.75-5.363 25l-3.3 15-50.084.26-50.085.26-.705-5.645z" fill="#fff"/></svg>