<svg xmlns="http://www.w3.org/2000/svg" width="125.849" height="124.834" viewBox="0 0 125.84892 124.83393"><path d="M53.027 124.136c-21.242-3.555-40.94-19.323-48.684-38.97C-8.77 51.904 8.886 14.002 42.817 2.572 47.014 1.158 52.153 0 54.237 0c3.79 0 3.79 0 3.79 7.34v7.34l-4.688.78C40.362 17.61 25.51 29.27 19.772 41.803c-8.782 19.183-5.366 38.437 9.45 53.25 14.386 14.388 32.663 18.297 51.9 11.1 13.625-5.098 27.145-21.86 29.043-36.007l.69-5.147h7.335c7.26 0 7.337.038 7.337 3.618 0 11.205-9.995 30.514-20.65 39.89-13.954 12.285-34.618 18.513-51.85 15.628zm6.875-53.05c-6.28-3.51-7.675-11.295-2.813-15.696C59.692 53.034 88.63 35 89.805 35c.875 0-17.99 33.412-19.636 34.778-2.577 2.138-7.632 2.782-10.268 1.31zm50.595-16.398c-.038-3.618-5.023-15.745-8.45-20.558l-2.652-3.725 5.367-5.268 5.368-5.268 3.392 4.446c5.124 6.718 10.534 19.26 11.482 26.622l.845 6.562h-7.662c-7.103 0-7.663-.205-7.69-2.813zM86.545 21.14c-3.377-2.21-9.066-4.44-13.437-5.27l-7.58-1.442V7.214C65.527.134 65.592 0 69.05 0c7.63 0 24.52 6.588 31.49 12.28l3.112 2.544-4.94 5.088c-2.72 2.798-5.25 5.08-5.626 5.073-.376-.008-3.32-1.738-6.54-3.845z" fill="#fff"/></svg>