<svg xmlns="http://www.w3.org/2000/svg" width="425.319" height="467.122" viewBox="0 0 425.31851 467.12198"><path d="M297.78 465.142c-17.343-4.984-29.97-17.1-36.21-34.742l-2.79-7.892v-37.5c0-41.003.252-43.368 5.864-55 3.952-8.19 13.944-18.424 22.218-22.754 11.38-5.956 13.957-6.246 55.59-6.246 37.048 0 37.893.045 45.284 2.392 9.366 2.974 15.68 6.97 22.798 14.435 6.565 6.883 11.377 15.942 13.308 25.05 1.76 8.31 2.033 71.524.347 80.69-3.653 19.853-19.562 36.722-39.54 41.925-9.04 2.355-78.425 2.068-86.87-.358zm51.51-23.384c7.02-4.778 7.456-6.13 7.807-24.236l.316-16.347 16.863-.334c18.68-.368 19.956-.77 24.754-7.822 4.518-6.637 2.315-15.94-5.07-21.418-2.55-1.89-4.438-2.124-19.685-2.425l-16.865-.333-.315-16.847c-.285-15.247-.513-17.115-2.407-19.667-7.28-9.814-19.535-9.814-26.816 0-1.894 2.553-2.122 4.42-2.408 19.75l-.315 16.93H310.18c-16.594 0-19.47.7-24.402 5.943-2.716 2.888-3 3.822-3 9.874 0 7.895 1.807 11.068 8.066 14.17 3.534 1.75 6.042 2.014 19.183 2.014h15.116l.317 16.43c.286 14.82.522 16.707 2.41 19.25 3.55 4.785 8.193 7.32 13.407 7.32 3.233 0 5.74-.704 8.01-2.25zm-212.01-42.774c-43.598-3.273-89.02-11.143-124.46-21.562L0 373.652l.685-13.072c2.05-39.128 11.27-76.038 26.998-108.072 13.522-27.542 27.764-46.687 50.033-67.258l7.936-7.33 8.564 8.458c19.185 18.95 41.62 30.533 67.488 34.846 10.2 1.7 31.42 1.4 41.786-.592 24.384-4.685 46.37-16.278 64.05-33.773l8.825-8.734 6.708 5.775c27.297 23.507 50.12 58.71 63.765 98.358l2.323 6.75h-22.98c-27.334 0-34.455 1.125-46.4 7.327-15.122 7.853-26.335 21.89-30.503 38.184-1.752 6.853-1.997 11.094-1.997 34.68 0 20.6-.29 26.972-1.25 27.303-7.026 2.43-85.56 4.222-108.75 2.48zm29.5-200.006c-8.294-1.28-21.73-5.54-29.515-9.357-21.085-10.336-39.324-29.462-48.02-50.355-6.22-14.938-7.353-21.076-7.336-39.757.014-15.596.24-17.743 2.732-26 5.19-17.188 12.385-29.936 23.63-41.866C137.258.884 181.238-8.388 220.537 7.972c25.337 10.547 47.022 34.38 55.538 61.036 3.728 11.67 4.657 18.194 4.56 32-.077 11.055-.555 15.243-2.634 23.12-4.818 18.244-12.054 31.02-25.502 45.024-13.47 14.027-28.33 22.7-47.1 27.494-10.87 2.775-28.76 3.855-38.62 2.332z" fill="#fff"/></svg>