<svg xmlns="http://www.w3.org/2000/svg" width="73.592" height="109.558" viewBox="0 0 73.59243 109.55836"><path d="M20.304 109.092c-.376-.376-.683-1.515-.683-2.533 0-1.76 1.296-1.837 26.75-1.584 25.995.26 26.75.323 26.75 2.266 0 1.942-.755 2.008-26.066 2.267-14.337.145-26.375-.043-26.75-.418zM.144 106.78c-.714-1.155 1.42-22.204 2.353-23.21.546-.59 15.19 7.84 17.32 9.97.442.44-3.134 3.513-7.947 6.826C.72 108.042.872 107.96.143 106.78zM27.62 83.64c-2.474-1.583-4.414-3.25-4.31-3.705.174-.765 25.09-42.11 26.015-43.17.604-.69 9.828 4.77 9.625 5.698-.194.885-25.288 42.435-26.222 43.418-.334.353-2.632-.656-5.107-2.24zM8.863 72.158c-2.333-1.39-4.24-2.95-4.24-3.465 0-.88 24.406-41.644 25.838-43.154.366-.387 2.79.618 5.383 2.233l4.717 2.935-12.572 20.767c-6.914 11.422-13.092 21.318-13.728 21.99-.904.956-2.08.672-5.398-1.307zM48.944 28.33c-7.246-4.448-13.467-8.383-13.823-8.745-.665-.675 2.123-6.843 3.093-6.843.453 0 18.392 10.717 26.175 15.636 2.346 1.483 2.165 2.72-.944 6.453-1.18 1.416-2.762.707-14.5-6.5zm6.463-12.857c-7.543-4.527-13.73-8.534-13.75-8.904-.02-.37 1.13-2.06 2.553-3.75 3.693-4.39 6.358-3.907 17.888 3.243 11.23 6.964 13.184 9.704 10.31 14.443-.897 1.476-2.002 2.8-2.458 2.94-.456.142-7-3.446-14.543-7.973z" fill="#fff"/></svg>