<svg xmlns="http://www.w3.org/2000/svg" width="73.844" height="101" viewBox="0 0 73.843788 101"><path d="M49.345 88.25c-4.107-7.013-8.485-14.55-9.728-16.75l-2.26-4s-4.318.33-8.372.642c-4.054.31-10.372-.938-14.514-3.372-5.214-3.066-8.91-7.075-12.13-13.154-3.304-6.244-3.08-17.38.487-24.206C9.907 13.865 25.653 8.09 39.39 13.998c2.874 1.237 5.226 2.506 5.226 2.82 0 .315-1.17 1.793-2.6 3.285-2.48 2.59-2.75 2.648-5.967 1.305-7.94-3.318-18.037-.404-23.83 6.88C6.46 35.522 7.68 48.077 14.78 54.7c3.27 3.05 9.053 5.302 13.552 5.276 10.413-.06 20.25-10.11 20.276-20.712.004-1.23 1.35-3.704 2.99-5.5 4.063-4.444 5.24-2.645 4.732 7.234-.39 7.585-2.765 14.136-6.143 16.94-.866.717-1.574 1.955-1.574 2.75 0 .794 4.05 8.535 9 17.202 4.95 8.667 9 16.475 9 17.352 0 1.73-5.785 5.756-8.27 5.756-.91 0-4.58-5.202-9-12.75zm-26.11-46.13c-5.143-5.197-5.688-6.123-4.696-7.977 2.233-4.172 4.646-4.46 8.565-1.018l3.583 3.145L49.06 18.135C59.167 8.16 67.847 0 68.35 0c.505 0 1.947 1.096 3.206 2.436l2.288 2.435-2.018 2.816C68.432 12.42 31.898 48 30.43 48c-.757 0-3.995-2.646-7.195-5.88z" fill="#fff"/></svg>