<svg xmlns="http://www.w3.org/2000/svg" width="327.28" height="369.269" viewBox="0 0 327.28033 369.26898"><path d="M21.348 368.552c-9.44-.874-15.335-5.06-19.105-13.566-1.658-3.74-1.79-13.15-2.137-152.313C-.097 121.093 0 53.293.324 52.005c.854-3.402 10.48-13.546 14.578-15.362 2.887-1.28 10.007-1.654 40.012-2.1 20.075-.3 37.002-.87 37.615-1.27.613-.398 1.353-2.504 1.645-4.68C95.45 19.09 104.345 7.89 114.63 2.84 119.608.396 121.6 0 128.915 0c7.105 0 9.427.435 14.148 2.648 10.2 4.782 17.663 14.595 20.018 26.324l1.077 5.364 37.63.34c36.415.327 37.756.408 41.627 2.513 2.2 1.196 5.288 3.394 6.86 4.886 5.582 5.288 6.01 7.633 6.444 35.207.218 13.905.12 26.384-.218 27.73-.79 3.147-6.076 9.172-9.685 11.038-3.573 1.85-12.196 1.87-15.7.04-3.075-1.607-7.42-6.045-9.08-9.274-.695-1.356-1.12-8.468-1.12-18.75V71.5h-13c-14.54 0-13.854-.295-19.03 8.2-4.63 7.598-9.027 9.854-21.176 10.86-13.728 1.137-57.34 1.122-72.158-.026-10.287-.796-12.36-1.263-15.607-3.513-3.715-2.573-10.03-10.38-10.03-12.398 0-2.355-4.528-3.122-18.435-3.122H36.914v262h221.171l-.672 7.75c-1.208 13.937-3.562 19.278-10.524 23.886-3.95 2.613-4.79 2.744-22.29 3.47-21.99.915-193.288.87-203.252-.054zM135.843 47.748c4.638-2.365 7.19-6.127 7.795-11.492.986-8.74-4.78-15.67-13.755-16.533-5.728-.55-11.667 2.304-14.392 6.917-1.914 3.242-2.28 9.953-.754 13.86 1.043 2.67 5.7 7.395 8.178 8.296 3.166 1.152 9.644.627 12.93-1.048zm87.61 265.708c-19.046-2.994-35.69-11.87-50.54-26.958-19.572-19.886-27.4-42.4-24.914-71.67 1.39-16.393 5.243-27.53 13.985-40.423 12.043-17.763 31.136-31.746 50.68-37.117 10.82-2.973 39.645-3.213 48.75-.406 32.163 9.918 56.132 35.04 64.2 67.29 1.22 4.876 1.696 10.83 1.664 20.828-.04 12.225-.384 15.114-2.712 22.788-10.014 33-35.81 57.706-66.972 64.143-9.7 2.004-26.364 2.75-34.143 1.526zm12.97-37.068c5.832-5.972 45.49-85.852 45.49-91.625 0-2.682-3.985-8.092-7.616-10.335-4.43-2.738-10.612-2.185-13.946 1.247-2.633 2.713-9.038 14.27-23.87 43.075-5.875 11.412-11.036 20.75-11.468 20.75-.432 0-3.834-3.613-7.56-8.028-7.49-8.875-8.975-9.972-13.504-9.972-10.696 0-16.83 9.596-12.085 18.9 2.49 4.88 19.53 27.76 24.91 33.447 4.65 4.915 6.54 5.715 12.48 5.282 3.474-.254 5.497-1.028 7.17-2.742zm-169.06 32.836c-.27-.702-.37-10.714-.22-22.25l.27-20.974 22.25-.27 22.25-.268V310.5h-22.03c-16.94 0-22.145-.295-22.52-1.276zM99.912 288v-9.5h-20v19h20V288zm-33-64.5v-22h45v44h-45v-22zm31.283 9c.246-.275.75-4.662 1.118-9.75l.672-9.25H79.914v20.2l8.918-.35c4.905-.193 9.12-.575 9.364-.85zm-30.834-53.276c-.27-.702-.368-10.714-.22-22.25L67.415 136l22.25-.27 22.25-.268V180.5h-22.03c-16.942 0-22.146-.295-22.522-1.276zM99.7 157.75l-.286-9.75-9.75-.286-9.75-.286V167.5h20.073l-.287-9.75z" fill="#fff"/></svg>