<svg xmlns="http://www.w3.org/2000/svg" viewBox="0 0 583.90936 269.00003" height="269" width="583.909"><path d="M0 267.75c.02-.688 2.623-8 5.78-16.25 5.563-14.53 5.84-15.01 8.795-15.3l3.05-.302 5.822 15.3c3.202 8.417 6.026 15.864 6.275 16.552.315.866-.76 1.25-3.494 1.25-3.74 0-4.012-.21-5.148-4l-1.198-4H9.28l-1.2 4c-1.098 3.665-1.488 4-4.658 4-2.12 0-3.445-.484-3.422-1.25zm17.962-12.072c0-.177-.74-2.49-1.642-5.14l-1.64-4.82-1.86 4.892c-1.02 2.69-1.856 5.002-1.857 5.14 0 .138 1.574.25 3.5.25 1.924 0 3.5-.145 3.5-.322zm14-3.178V236h8.05c12.14 0 16.95 3.34 16.95 11.768 0 3.308-.602 4.926-2.567 6.89l-2.567 2.567 3.567 5.372c1.962 2.955 3.567 5.604 3.567 5.888 0 .283-1.76.515-3.914.515-3.62 0-4.145-.376-6.99-5-2.492-4.048-3.603-5-5.836-5-2.69 0-2.75.123-2.413 5l.345 5H31.96v-16.5zm16.8-1.7c.66-.66 1.2-2.145 1.2-3.3 0-3.144-1.943-4.5-6.45-4.5h-4.05v9h4.05c2.228 0 4.59-.54 5.25-1.2zm12.2 1.7V236h7.98l4.35 8.66c3.21 6.388 4.59 8.292 5.26 7.25.498-.775 2.553-4.56 4.565-8.41 3.4-6.504 3.913-7.022 7.252-7.31l3.592-.31V269h-7l-.05-9.25-.048-9.25-3.465 6.75c-2.506 4.88-4.01 6.75-5.438 6.75-1.426 0-2.932-1.87-5.437-6.75l-3.464-6.75-.05 9.25-.048 9.25h-8v-16.5zm36 15.64c0-.542 2.64-7.88 5.866-16.312 5.66-14.785 5.973-15.34 8.873-15.632 2.154-.218 3.21.208 3.72 1.5 3.025 7.658 11.542 30.375 11.542 30.788 0 .284-1.578.516-3.508.516-3.166 0-3.666-.394-5.128-4.048l-1.62-4.048-5.037.298c-4.774.282-5.1.482-6.206 3.798-1.018 3.05-1.64 3.54-4.835 3.81-2.018.17-3.668-.13-3.668-.67zm17.6-14.596c-.918-3.66-2.61-7.875-2.983-7.433-.18.215-1.04 2.527-1.912 5.14l-1.584 4.75h3.547c3.27 0 3.5-.194 2.933-2.456zm19.4 2.456v-13h-10v-7h27v7h-10v26h-7v-13zm14 12.484c0-.413 8.517-23.13 11.543-30.788.51-1.292 1.565-1.717 3.72-1.5 2.9.293 3.213.847 8.87 15.632 3.228 8.43 5.867 15.77 5.867 16.31 0 .54-1.65.843-3.667.672-3.194-.27-3.817-.76-4.834-3.81-1.105-3.316-1.43-3.516-6.204-3.798l-5.038-.298-1.62 4.048c-1.462 3.654-1.96 4.048-5.128 4.048-1.93 0-3.508-.232-3.508-.516zm17.154-17.397c-.91-2.702-1.862-4.706-2.116-4.454-.255.252-1.224 2.463-2.154 4.913l-1.69 4.454H166.77l-1.654-4.913zm24.846 1.413V236h22v7h-15v7h6c6 0 6 0 6 3s0 3-6 3h-6v13h-7v-16.5zm25 0V236h7v33h-7v-16.5zm12 0V236h2.75c2.29.002 4.074 1.677 10.653 10 4.347 5.5 7.947 10 8 10.002.054 0-.045-4.5-.22-10L247.83 236h8.132v33l-3.25-.043c-2.9-.038-4.057-1.073-10.75-9.617l-7.5-9.574-.286 9.617-.286 9.617h-6.928v-16.5zm31.012 15.25c.006-.688 2.603-8 5.77-16.25 5.59-14.56 5.85-15.01 8.834-15.302l3.073-.3 5.564 14.8c3.06 8.14 5.878 15.59 6.263 16.552.595 1.49.11 1.75-3.25 1.75-3.74 0-4.01-.21-5.147-4l-1.198-4H267.28l-1.2 4c-1.098 3.665-1.488 4-4.658 4-2.107 0-3.455-.49-3.448-1.25zm17.988-12.072c0-.177-.74-2.49-1.642-5.14l-1.64-4.82-1.86 4.892c-1.02 2.69-1.856 5.002-1.857 5.14 0 .138 1.574.25 3.5.25 1.924 0 3.5-.145 3.5-.322zm14-3.178V236h2.84c2.37 0 3.98 1.434 9.75 8.688 3.8 4.778 7.36 9.29 7.91 10.024.683.913.9-1.844.684-8.687L310.83 236h8.132v33h-2.968c-2.546 0-4.054-1.35-10.61-9.5-4.202-5.225-7.703-9.5-7.78-9.502-.078 0 .002 4.274.177 9.5l.32 9.502h-8.138v-16.5zm40.39 14.595c-10.12-6.17-11.16-20.592-1.99-27.587 6.556-5 14.983-4.307 20.57 1.69 2.63 2.824 2.582 3.07-.912 4.616-2.63 1.164-3.16 1.084-5-.756-4.395-4.395-11.92-1.547-13.58 5.14-1.022 4.123 1.222 9.595 4.667 11.377 4.57 2.363 10.575.074 9.98-3.806-.06-.403 1.46.018 3.382.934 4.077 1.945 4.327 3.165 1.242 6.055-4.83 4.523-13.056 5.57-18.36 2.335zm23.61-14.595V236h7v33h-7v-16.5zm10.06 15.25c.03-.688 2.657-8 5.834-16.25 5.566-14.45 5.888-15.01 8.788-15.302l3.01-.302 6.154 16.023c3.385 8.81 6.154 16.26 6.154 16.55 0 .292-1.61.53-3.58.53-3.25 0-3.726-.37-5.152-4-1.56-3.972-1.608-4-6.92-4-4.01 0-5.348.363-5.348 1.453 0 .8-.522 2.6-1.16 4-.907 1.99-1.892 2.547-4.5 2.547-2.036 0-3.317-.488-3.28-1.25zm17.914-13c-.014-.688-.81-2.995-1.768-5.128l-1.742-3.877-1.64 5.127-1.64 5.128h3.408c2.074 0 3.398-.49 3.382-1.25zm14.026-2.25V236h8v26h16v7h-24v-16.5zm42.207 14.83c-7.51-3.7-10.732-16.325-5.958-23.34 3.042-4.47 6.566-6.924 10.97-7.638 4.828-.784 7.952.08 11.703 3.237 3.7 3.112 3.867 4.65.687 6.35-2.09 1.12-2.655 1.015-4.5-.83-2.748-2.748-8.402-2.817-11.084-.135-4.733 4.732-3.672 13.376 2.015 16.42 3.407 1.825 3.682 1.83 7.25.137 4.544-2.156 4.915-4.532.71-4.532-2.534 0-3-.39-3-2.5 0-2.39.266-2.5 6-2.5h6v17h-2.917c-1.605 0-3.09-.515-3.298-1.143-.286-.858-.915-.858-2.518 0-3.005 1.608-8.19 1.382-12.06-.526zm25.792-14.83V236h7.6c8.777 0 13.178 1.66 15.694 5.92 2.43 4.113 2.143 8.408-.794 11.898-1.375 1.634-2.5 3.236-2.5 3.56 0 .326 1.35 2.786 3 5.468 1.65 2.68 3 5.163 3 5.515 0 .352-1.687.63-3.75.62-3.428-.018-4.004-.447-6.706-5-2.422-4.08-3.462-4.98-5.75-4.98-2.686 0-2.794.193-2.794 5v5h-7v-16.5zm16.5-5v-4l-4.75-.305-4.75-.305v9.22l4.75-.305 4.75-.305v-4zm18.49 19.25c-5.165-3.515-7.276-7.07-7.696-12.96-.476-6.67 2.485-12.25 8.227-15.503 7.044-3.99 13.328-2.64 19.282 4.14 5.24 5.97 5.253 14.42.03 21.06-4.46 5.667-14.004 7.237-19.843 3.263zm13.76-7.387c3.238-3.56 3.134-10.57-.204-13.908-3.222-3.222-8.415-3.317-11.24-.205-4.662 5.134-3.562 13.868 2.053 16.297 3.847 1.663 6.444 1.06 9.392-2.184zm19.67 7.75c-5.045-3.075-6.42-7.36-6.42-20.014V236h6.828l.336 11.467c.377 12.87 1.31 14.866 6.944 14.866 5.63 0 6.892-2.828 6.892-15.444V236h7v11.55c0 13.037-1.05 16.29-6.298 19.49-4.137 2.523-11.21 2.557-15.282.074zm27.58-14.613V236h7.55c8.693 0 12.67 1.59 14.933 5.967 4.404 8.515-1.573 17.033-11.95 17.033h-3.533v10h-7v-16.5zm16.344-2.672c.742-1.184.705-2.426-.126-4.25-.98-2.15-1.845-2.578-5.196-2.578h-4.022v9.115l4.148-.307c2.53-.188 4.557-.96 5.196-1.98zm-479.344-69.49c0-4.42-.425-3.68 27.53-47.838 12.187-19.25 26.133-41.3 30.99-49 4.86-7.7 10.723-16.925 13.03-20.5 2.307-3.575 10.596-16.625 18.42-29A20425.197 20425.197 0 0 1 204.81 5.76L208.46.016l19.75-.008 19.75-.01v184H195.35l4.634-34.25c2.548-18.837 4.54-34.385 4.423-34.55-.116-.165-2.4-.006-5.078.354l-4.868.654-17.456 33.896L159.55 184H96.962v-3.662zm102.97-78.088c6.36-12.607 6.445-12.885 7.58-24.75.632-6.6 1.025-12.155.873-12.344-.22-.27-29.773 43.52-32.796 48.594-.575.964 1.39 1.25 8.582 1.25h9.327l6.432-12.75zM252.962 92V0h106v39.972l-31.75.264-31.75.264-.272 18.75-.272 18.75H357.65l.626 15.21c.47 11.443.322 15.402-.595 15.985-.67.426-15.055.78-31.968.79l-30.75.015v74h-42V92zm109 0V0h125v61h-37V50.19c0-15.818.97-15.19-23.466-15.19h-19.39l-2.07 2.635c-2.04 2.59-2.074 3.522-2.074 56.345 0 53.333.015 53.723 2.105 55.615 1.917 1.735 3.83 1.905 21.395 1.905 17.566 0 19.478-.17 21.395-1.905 1.525-1.38 2.105-3.103 2.105-6.25V139h-34v-26h71v71h-125V92z" fill="#63778d"/></svg>