<svg xmlns="http://www.w3.org/2000/svg" width="190" height="190" viewBox="0 0 190 190"><path d="M0 95V0h190v190H0V95zm84.714 17.743c3.97-2.683 8.74-9.2 7.822-10.684-1.372-2.22-8.886-1.125-13.436 1.958-4.977 3.373-6.944 3.63-11.133 1.465-7.44-3.847-7.873-15.934-.75-20.922 3.335-2.335 6.982-1.9 11.883 1.422 4.577 3.1 12.067 4.175 13.455 1.93 1.106-1.79-5.036-9.24-9.61-11.66-5.718-3.023-14.614-3.075-20.72-.12-13.915 6.737-14.87 26.41-1.768 36.403 6.206 4.734 17.42 4.83 24.257.208zM23 113c1.958-2.75 2.626-3 8-3 5.374 0 6.042.25 8 3 1.816 2.55 2.792 3 6.51 3 2.404 0 4.637-.43 4.96-.953.325-.524-2.866-9.75-7.09-20.5L35.7 75H26.325L18.61 94.51c-4.243 10.73-7.44 19.956-7.104 20.5.337.545 2.58.99 4.985.99 3.718 0 4.694-.45 6.51-3zm4.715-12.75c-.22-.412.368-3.225 1.31-6.25l1.71-5.5 1.565 3.555c.86 1.956 1.87 4.768 2.24 6.25.64 2.547.482 2.695-2.873 2.695-1.952 0-3.73-.338-3.952-.75zm101.64 12.74c4.27-2.89 9.134-9.39 8.18-10.93-1.37-2.22-8.885-1.125-13.435 1.958-4.977 3.373-6.944 3.63-11.133 1.465-9.275-4.796-7.085-20.473 3.087-22.095 2.75-.438 4.355.07 7.946 2.513 4.672 3.18 12.147 4.29 13.555 2.01 1.11-1.797-5.044-9.24-9.703-11.734-6.05-3.236-16.79-2.832-22.208.835-7.277 4.927-10.878 13.596-9.25 22.27 1.002 5.348 6.14 12.273 10.893 14.687 5.995 3.043 16.838 2.563 22.07-.978zm20.85.26c1.215-2.542 1.82-2.772 8.006-3.045 6.587-.29 6.718-.245 8.293 2.8 1.516 2.933 1.874 3.08 6.8 2.795 3.996-.23 5.124-.647 4.88-1.8-.175-.825-3.735-10.162-7.913-20.75L162.674 74h-8.504l-8.085 20.347c-4.447 11.19-8.085 20.64-8.085 21 0 .36 2.45.653 5.445.653 4.956 0 5.564-.248 6.76-2.75zM155 99.904c0-.603.742-3.64 1.65-6.75l1.648-5.654 1.87 5.482c1.027 3.015 1.65 6.053 1.38 6.75-.593 1.55-6.548 1.706-6.548.172z" fill="#f39f18"/></svg>