<svg xmlns="http://www.w3.org/2000/svg" width="76.402" height="75.209" viewBox="0 0 76.402344 75.208984"><path d="M38.2 0A38.202 37.605 0 0 0 0 37.604 38.202 37.605 0 0 0 38.2 75.21a38.202 37.605 0 0 0 38.202-37.606A38.202 37.605 0 0 0 38.202 0zm22.86 19.422c.5 0-.2.875-1.558 1.943-1.358 1.07-5.79 6.806-9.848 12.75-4.057 5.944-11.088 14.52-15.623 19.057-8.726 8.733-11.95 10.357-10.88 5.48.828-3.766-.97-5.873-6.95-8.136-2.75-1.042-4.904-2.215-4.788-2.608.116-.393 4.166-2.038 9-3.654C30.708 40.812 40.2 35.43 48.937 28.08c7.242-6.092 10.833-8.658 12.122-8.658z" fill="#f39f18"/></svg>