<svg xmlns="http://www.w3.org/2000/svg" width="105.7" height="109.946" viewBox="0 0 105.6998 109.94563"><path d="M48.338 107.855c-4.884-3.284-18.463-9.455-26.232-11.922l-7.232-2.297-2.174-6.56C11.504 83.47 8.157 74.782 5.263 67.77L0 55.02l5.037-11.25c2.77-6.19 6.2-14.94 7.618-19.446l2.58-8.194 8.976-3.134c4.937-1.724 13.397-5.353 18.802-8.065L52.838 0l9.75 4.89c5.362 2.69 13.35 6.137 17.75 7.662 4.4 1.524 8.51 3.265 9.13 3.87.623.602 2.37 4.92 3.883 9.596 1.514 4.675 4.91 13.113 7.55 18.752l4.8 10.25-4.402 9.42c-2.42 5.18-5.866 13.922-7.656 19.425L90.387 93.87l-8.128 2.645c-4.472 1.454-13.196 5.088-19.388 8.074-6.192 2.985-11.32 5.395-11.396 5.355a233 233 0 0 1-3.138-2.09zm14.66-6.347c5.137-2.48 12.897-5.755 17.245-7.277l7.905-2.766 2.657-7.973c1.46-4.384 4.74-12.603 7.285-18.263l4.63-10.29L97.83 44.1c-4.953-10.978-8.992-21.918-8.992-24.353 0-.77-2.927-2.278-6.912-3.56-3.8-1.225-11.905-4.678-18.01-7.674L52.82 3.066l-6.324 3.476c-3.477 1.91-11.398 5.394-17.603 7.74l-11.28 4.265-3.783 10.486C11.75 34.8 8.464 42.947 6.528 47.138l-3.52 7.62 6.466 16.38c3.557 9.01 6.837 17.28 7.29 18.38.567 1.376 3.477 2.892 9.322 4.856 4.674 1.57 12.267 4.802 16.875 7.18 4.608 2.377 8.9 4.354 9.54 4.393.637.04 5.362-1.958 10.5-4.44zm-19.16-3.977c-4.676-2.34-11.76-5.302-15.742-6.58-7.04-2.256-7.287-2.446-8.902-6.876-.914-2.506-3.898-10.084-6.632-16.84l-4.97-12.285 3.522-7.717C13.05 42.99 16.06 35.435 17.8 30.445l3.165-9.074 6.762-2.177c3.72-1.198 10.91-4.197 15.98-6.664l9.218-4.488L61.63 12.4c4.79 2.396 11.633 5.388 15.208 6.65 3.575 1.26 6.878 2.62 7.34 3.02.463.402 2.14 4.594 3.727 9.318 1.587 4.723 4.507 11.806 6.488 15.74l3.602 7.154-3.59 7.855c-1.975 4.32-4.895 11.735-6.488 16.477-1.594 4.743-3.276 8.952-3.74 9.356-.46.403-4.44 1.982-8.84 3.51-4.4 1.526-11.375 4.47-15.5 6.542l-7.5 3.768-8.5-4.26zm10.617-7.262c.39-2.062.897-3.187 1.128-2.5.726 2.155 2.255 1.363 2.255-1.168 0-1.33.273-3.13.607-4 .87-2.266 3.393-1.955 3.393.418 0 1.467.666 2 2.5 2 3.148 0 3.37-2.736.26-3.18-2.898-.413-4.476-3.84-5.465-11.86-.714-5.798-1.043-6.495-3.207-6.8-1.843-.26-2.08-.548-1-1.22.776-.48 1.412-2.128 1.412-3.658 0-2.123.532-2.857 2.25-3.1 4.792-.682 1.264-5.182-4.062-5.182-3.296 0-4.835 2.122-5.44 7.5-.375 3.315-.16 4.5.81 4.5.807 0 .47.79-.87 2.04-1.204 1.12-2.188 3.13-2.188 4.464 0 3.14-2.93 11.803-4.277 12.654-.572.36-1.644.426-2.382.143-1.32-.508-1.968 2.737-.782 3.923 1.144 1.144 4.552-.495 4.003-1.925-.397-1.034.08-1.348 1.693-1.12 1.732.247 2.318 1.08 2.564 3.65.223 2.324.732 3.173 1.683 2.808.893-.343 1.587.493 2.01 2.42.888 4.043 2.256 3.688 3.105-.808zm-4.445-8.345c-1.095-1.754-.872-1.905 2.82-1.905 2.387 0 4.008.472 4.008 1.167 0 .642-.302.865-.67.496-.37-.367-1.638-.035-2.82.74-1.912 1.252-2.28 1.198-3.338-.497zM33.23 71.757c.57-.904.726-1.954.346-2.333-.95-.952-3.738 1.51-3.738 3.3 0 1.81 2 1.24 3.393-.967zm42.135 1.217c.693-1.122-1.204-3.956-2.65-3.956-1.024 0-1.188 3.356-.21 4.334.97.97 2.12.817 2.86-.378zm-45.588-3.168c1.285-2.28 1.252-2.74-.31-4.303-1.436-1.434-2.197-1.547-4.22-.626-2.543 1.16-4.143 3.74-3.016 4.868.353.352 1.173.107 1.824-.543 1.7-1.7 3.26-1.464 1.82.272-1.358 1.637-.472 3.854 1.305 3.267.636-.21 1.805-1.53 2.597-2.934zm50.247.77c-.243-1.342.152-1.585 1.75-1.078 1.707.542 2.064.226 2.064-1.83 0-1.365.562-2.717 1.25-3.004.886-.37.685-.974-.69-2.083-1.905-1.53-1.9-1.562.25-1.562 2.572 0 2.923-1.78.53-2.7-1.422-.545-1.35-.752.5-1.436 2.544-.942 2.884-2.864.505-2.864-1.54 0-1.54-.127 0-1.83 2.358-2.605 2.05-3.486-.954-2.732l-2.61.655 2.208-2.795 2.21-2.797-2.1-.32c-1.68-.255-1.906-.675-1.134-2.118 1.123-2.096.433-3.152-1.56-2.387-1.1.42-1.26-.183-.75-2.82.635-3.28.605-3.316-1.332-1.605-2.756 2.434-2.928 2.278-2.496-2.25.412-4.32-.34-5.013-2.436-2.25-1.206 1.588-1.332 1.49-1.36-1.066-.018-1.548-.553-3.788-1.19-4.977-1.13-2.113-1.174-2.117-1.93-.184-.424 1.088-.803 4.678-.84 7.978-.058 4.996.343 6.48 2.397 8.87 1.522 1.77 3.055 2.643 4 2.28 1.708-.655 1.792-.495.924 1.768-.768 2.005-3.274 2.055-4.03.082-.317-.825-1.172-1.5-1.9-1.5s-1.467-.918-1.643-2.04c-.176-1.12-.77-2-1.32-1.954-1.57.134-.688 9.31.985 10.246.8.448 1.946 2.635 2.545 4.86.996 3.694.865 4.34-1.518 7.462-1.934 2.534-3.643 3.583-6.612 4.058-3.348.535-3.954.987-3.702 2.754.63 4.405 7.72 2.056 14.107-4.675 2.39-2.52 2.747-3.61 2.41-7.374-.217-2.43.05-4.694.596-5.03.566-.35.175-1.23-.91-2.05-1.856-1.402-1.853-1.43.098-1.087 1.623.283 2.11 1.382 2.588 5.84.323 3.018.138 6.613-.412 7.988s-.927 2.838-.838 3.25c.09.413-.513.75-1.338.75-1.92 0-1.896.99.093 3.83 1.79 2.555 4.074 2.382 3.594-.27zm-34.686-1.1c0-1.34-.997-2.08-3.486-2.59-2.028-.413-4.676-2.044-6.332-3.897-3.138-3.513-3.092-4.987.39-12.632 2.058-4.515 2.58-10.34.928-10.34-.55 0-1 .675-1 1.5s-.675 1.5-1.5 1.5-1.5.627-1.5 1.393c0 1.504-2.903 3.04-3.885 2.057-.33-.33.195-1.043 1.164-1.585.97-.543 1.483-1.44 1.14-1.993-.34-.554.283-1.243 1.388-1.532 1.104-.288 2.268-1.496 2.587-2.682 1.012-3.775.656-14.51-.506-15.227-1.69-1.046-2.852 1.57-2.913 6.568l-.055 4.5-1.492-2.75c-2.135-3.935-2.763-3.41-2.174 1.816l.515 4.566-2.385-2.24-2.384-2.24v2.674c0 1.71-.54 2.674-1.5 2.674-1.775 0-1.848.483-.465 3.066.874 1.634.7 1.934-1.115 1.934-2.064 0-2.084.1-.512 2.5 1.54 2.352 1.53 2.5-.187 2.5-2.87 0-2.763 6.84.125 8.005 1.624.655 1.737.884.462.932-2.687.1-3.153 2-.713 2.903 1.888.698 1.973.92.564 1.46-2.477.95-2.005 2.7.73 2.7 2.257 0 8.247-3.896 6.098-3.966-1.438-.048-.282-11.28 1.21-11.77.88-.29.967.416.325 2.656-1.688 5.89-.332 10.215 4.63 14.77 5.73 5.26 11.848 6.69 11.848 2.768zm-1.082-4.065c2.323-.89 1.93-2.31-.944-3.402-3.358-1.276-4.117-3.622-1.95-6.018 1.406-1.552 1.582-2.61.858-5.135-.98-3.413-3.382-5.082-3.382-2.35 0 .91-.675 2.33-1.5 3.156-.917.918-1.5 3.368-1.5 6.305 0 4.424.256 4.93 3.25 6.406 3.863 1.905 3.242 1.78 5.168 1.04zm21.602-.902c5.148-2.663 6.44-7.545 2.98-11.26-1.1-1.18-2-3.038-2-4.13 0-3.704-1.898-3.174-3.11.87-1.036 3.46-.973 4.28.452 5.856 2.482 2.742 2.01 4.856-1.342 6.024-2.93 1.022-3.678 2.14-2.334 3.484 1 1 2.134.82 5.354-.844z" fill="#f39f18"/></svg>