<svg xmlns="http://www.w3.org/2000/svg" width="89.086" height="118" viewBox="0 0 89.086113 118"><path d="M19.392 115.5V113h50v5h-50v-2.5zm0-15V90h50v21h-50v-10.5zm17-13.34c0-.462.9-4.36 2-8.66s2-9.737 2-12.08c0-3.86-.624-4.943-6.614-11.47-3.638-3.964-7.67-9.512-8.958-12.33-2.548-5.564-4.924-18.777-6.002-33.37L18.134 0h51.562l-.647 11.347c-1.378 24.103-4.53 34.08-13.997 44.306-4.76 5.14-5.66 6.704-5.66 9.814 0 3.253 2.932 16.587 4.607 20.954.525 1.368-.615 1.58-8.5 1.58-5.01 0-9.108-.378-9.108-.84zm32.126-34.708c-2.5-2.102-3.126-3.398-3.126-6.458 0-3.215.626-4.362 3.905-7.16 3.577-3.055 4.205-4.398 7.5-16.038 1.977-6.988 3.595-13.373 3.595-14.19 0-1.11-1.073-1.437-4.25-1.295-4.11.184-4.26.083-4.563-3.06L71.264 1h9.13c8.264 0 9.08.167 8.573 1.76-.307.97-2.604 9.122-5.103 18.118C78.247 41.102 77.08 44 74.55 44c-2.518 0-3.464 2.5-1.548 4.09 1.67 1.386 1.504 6.055-.234 6.624-.618.203-2.53-.815-4.25-2.262zm-53.5.84c-.992-.992-.727-5.11.374-5.792 1.914-1.183 1.075-4.35-1.24-4.68-1.233-.176-2.775-1.445-3.428-2.82C8.872 36.102-.523 1.672.024.79.29.354 4.308 0 8.95 0h8.442v3c0 2.883-.173 3-4.44 3-2.443 0-4.63.338-4.86.75-.228.412 1.33 6.79 3.462 14.172 3.524 12.196 4.242 13.758 7.858 17.096 4.143 3.825 5.032 7.15 2.95 11.037-1.165 2.178-6.39 5.193-7.343 4.238z" fill="#f39f18"/></svg>