<svg xmlns="http://www.w3.org/2000/svg" width="281.498" height="284.546" viewBox="0 0 281.49826 284.5463"><path d="M0 146.546v-138h79v276H0v-138zm45.328 105.957c4.857-3.82 4.12-13.04-1.273-15.927-8.435-4.515-17.65 4.886-13.107 13.373 2.53 4.725 9.944 6.042 14.38 2.553zm20.374-89.153L69 160.154V54.7l-2.486-2.955-2.486-2.954-17.327-.72c-21.892-.913-29.795-.156-33.833 3.242l-2.99 2.517.31 53.823c.347 59.656-.064 56.237 6.952 57.895 1.848.436 12.79.84 24.312.896l20.953.102 3.297-3.196zM20 127.046v-4.5h39v9H20v-4.5zm0-20v-4.5h39v9H20v-4.5zm0-19.5v-5h39v10H20v-5zm63 59v-138h79v276H83v-138zm45.505 105.586c3.153-3.153 4.022-6.9 2.47-10.645-3.42-8.258-14.757-7.905-17.975.56-.893 2.35-.304 5.722 1.5 8.588 2.792 4.435 10.268 5.234 14.005 1.497zm20.197-88.782l3.298-3.196V54.7l-2.486-2.955-2.486-2.954-17.327-.72c-21.88-.913-29.796-.155-33.826 3.236l-2.984 2.51.305 53.83c.338 59.665-.072 56.244 6.944 57.902 1.848.436 12.79.84 24.312.896l20.953.102 3.297-3.196zM103 127.046v-4.5h39v9h-39v-4.5zm0-20v-4.5h39v9h-39v-4.5zm0-19.5v-5h39v10h-39v-5zm100.51 194.696c-.982-3.04-37.556-270.983-37.057-271.482.685-.685 76.834-11.26 77.352-10.742.587.587 38.133 271.923 37.69 272.367-.222.222-16.287 2.577-35.7 5.233-19.412 2.656-36.78 5.053-38.597 5.325-2.07.31-3.447.048-3.69-.7zm37.93-34.673c3.29-1.25 6.06-6.897 5.154-10.504-1.107-4.413-4.96-7.52-9.326-7.52-4.62 0-7.568 1.896-9.243 5.94-3.412 8.237 4.586 15.44 13.415 12.083zm-12.94-86.584l20-2.564 3.236-3.688c2.92-3.326 3.178-4.128 2.644-8.188-.326-2.475-3.582-26.05-7.236-52.39L240.5 46.263 237 43.5l-3.5-2.765-18.5 2.372c-23.535 3.017-27.097 3.887-30.512 7.452l-2.75 2.87 7.136 50.308c3.925 27.67 7.612 52.02 8.193 54.114 1.816 6.534 3.558 6.708 31.433 3.134zm-26-32.835c-.18-.607-.57-2.522-.87-4.256-.455-2.654-.192-3.235 1.664-3.67 4.348-1.02 35.76-4.956 36.183-4.534.237.237.72 2.233 1.072 4.435l.64 4.003-9.846 1.254c-5.414.69-14.046 1.844-19.18 2.564-6.733.945-9.43 1.002-9.665.205zm-2.873-20.134c-.345-.898-.627-2.896-.627-4.44 0-3.255-1.294-2.897 21.905-6.05 16.912-2.3 17.05-2.27 17.08 3.61l.015 3.092-16.25 2.214c-8.938 1.218-17.43 2.438-18.873 2.71-1.83.347-2.813.003-3.25-1.136zM196.44 86c-.374-2.5-.514-4.7-.31-4.886.495-.455 38.1-5.686 38.382-5.34.598.733 1.158 9.772.605 9.772-.35 0-8.508 1.12-18.127 2.487-9.62 1.367-18.025 2.492-18.68 2.5-.653.007-1.494-2.032-1.87-4.533z" fill="#2c3949"/></svg>