<svg xmlns="http://www.w3.org/2000/svg" viewBox="0 0 276.86539 302.89062" height="302.891" width="276.865"><path d="M136.44 298.248c-2.332-5.636-7.52-11.574-11.58-13.256-2.792-1.157-3.147-1.045-5.21 1.633-7.462 9.683-15.652 13.827-27.27 13.8-6.68-.016-8.844-.457-13.12-2.673-18.683-9.684-19.78-35.953-1.9-45.56 4.467-2.402 15.102-2.233 19.414.308 5.625 3.315 9.325 8.73 9.875 14.45.593 6.175-.922 10.098-5.428 14.055-4.663 4.094-11.203 4.26-14.27.36-5.43-6.903 1.31-16.45 9.435-13.362 3.69 1.402 3.99.846 1.908-3.54-4.653-9.806-17.56-9.846-24.853-.078-1.645 2.203-2.062 4.248-2.062 10.102 0 6.543.326 7.804 3 11.6 4.37 6.204 10.128 8.915 18.907 8.903 31.054-.043 38.994-41.115 11.643-60.223-5.627-3.93-6.035-4.845-1-2.24l2.95 1.524v-5.916c0-5.59.15-5.955 2.69-6.592 6.73-1.69 11.31-7.943 11.31-15.443V202h13.227l-.596-4.25c-.327-2.337-1.96-17.525-3.627-33.75-3.09-30.09-4.635-43.362-5.608-48.233l-.547-2.734-13.674 7.016c-11.262 5.778-15.04 7.218-21.424 8.162-4.263.63-7.75 1.566-7.75 2.078 0 .887 23.4 46.176 26.053 50.423 1.73 2.772.766 4.68-4.17 8.257-6.066 4.394-12.822 6.115-23.943 6.097-11.012-.017-21.032-2.59-25.84-6.637-4.19-3.524-4.583-5.63-1.818-9.703 1.294-1.908 7.6-13.81 14.01-26.447l11.66-22.978-2.477-2.325c-2.838-2.667-3.2-6.498-.918-9.754 1.887-2.695 6.404-2.95 10.042-.566 3.797 2.488 10.545.516 24.322-7.11 14.074-7.79 17.755-8.86 30.578-8.883 12.636-.023 17.976 1.55 31.5 9.282 12.514 7.154 19.62 9.188 23.415 6.702 3.32-2.176 7.872-2.093 9.93.18 2.276 2.516 2.1 7.46-.345 9.672-1.1.995-2 2.463-2 3.26 0 1.744 21.376 44.04 24.826 49.126 2.198 3.238 2.294 3.81 1.024 6.072-1.94 3.458-7.213 6.8-13.697 8.686-8.14 2.366-26.862 1.523-33.653-1.515-5.296-2.37-10.5-6.692-10.5-8.72 0-.67 1.616-4.074 3.592-7.564 5.934-10.482 23.408-44.453 23.408-45.507 0-.54-3.488-1.523-7.75-2.185-7.633-1.185-11.942-2.938-27.25-11.083-7.422-3.95-7.507-3.967-8.197-1.78-.384 1.214-2.533 19.308-4.776 40.208s-4.343 39.913-4.666 42.25l-.587 4.25h13.227v4.04c0 7.378 4.756 13.857 11.396 15.523 2.438.612 2.604 1.03 2.604 6.57v5.918l2.95-1.524c5.034-2.604 4.627-1.69-1 2.24-10.827 7.564-16.494 18.37-16.383 31.234.078 9.04 2.756 15.96 8.245 21.308 11.432 11.138 30.4 10.582 38.633-1.133 4.155-5.912 4.806-15.177 1.482-21.09-3.893-6.927-13.29-10.017-19.967-6.564-2.655 1.374-7.722 9.05-6.67 10.105.24.237 1.68-.043 3.203-.622 8.303-3.157 15.594 7.808 9.192 13.823-6.986 6.563-19.727-1.553-19.663-12.526.086-14.9 16.762-23.768 30.935-16.453 8.205 4.236 13.235 15.872 11.058 25.584-3.212 14.334-12.927 21.957-28.015 21.985-11.182.02-20.157-4.84-27.307-14.788-2.834-3.944-11.488 2.462-15.626 11.568l-2.588 5.696-1.92-4.642zm5.15-20.498c2.475-2.71 4.75-7.17 5.73-11.25.657-2.722.84-2.837 2.002-1.25.703.963 1.503 1.75 1.778 1.75.275 0 .76-2.528 1.08-5.617.73-7.07 4.483-14.813 10.338-21.325l4.547-5.058h-57.37l4.745 5.25c5.814 6.432 9.673 14.525 10.252 21.5.472 5.683 1.293 6.526 2.922 3 1.018-2.204 1.054-2.188 1.725.75 1.237 5.414 3.866 10.61 6.36 12.573 3.088 2.43 3.387 2.413 5.89-.323zM90.635 158.497c-6.18-12.377-11.645-22.367-12.14-22.202-.498.166-6.053 10.292-12.346 22.503L54.708 181h47.167l-11.238-22.503zm120.03.32c-6.26-12.2-11.812-22.325-12.34-22.502-.53-.176-6.02 9.805-12.202 22.182L174.886 181h47.156l-11.377-22.182zm-98.286 92.636c-6.572-5.422-20.78-11.304-38.5-15.938-25.894-6.772-29.4-8.737-47.128-26.423C5.954 188.344 1.225 180.327.17 164.028c-.766-11.812 1.052-21.48 5.835-31.037 6.42-12.827 16.428-22.22 34.22-32.12C50.44 95.184 56.137 89.104 58.47 81.396c2.28-7.54 3.076-8.4 4.452-4.81 2.29 5.975-.22 13.037-8.092 22.767-3.884 4.8-4.87 6.843-5.418 11.235-.915 7.323-5.738 16.613-10.642 20.497-2.195 1.738-6.555 3.967-9.69 4.953l-5.7 1.792 4 1.677c5.314 2.227 9.5 6.305 9.5 9.254 0 2.3-1.202 3.728-9.348 11.097-4.58 4.143-6.443 7.643-7.703 14.46-3.218 17.4 11.4 40.306 32.176 50.425 4.606 2.243 13.528 5.49 19.827 7.214 19.373 5.305 35.925 12.974 41.97 19.445 3.036 3.248 2.478 3.267-1.423.048zM12.775 183.91c-2.423-7.783-2.62-26.71-.367-35.358 2.166-8.312 7.55-18.037 15.41-27.834 9.663-12.044 9.478-12.504-.8-1.998-7.453 7.617-9.858 10.904-13.83 18.905L8.38 147.31l-.354 12.4c-.195 6.823.124 14.304.71 16.627C9.795 180.547 13.66 190 14.32 190c.19 0-.505-2.74-1.547-6.09zm149.96 67.766c5.05-6.088 21.78-13.87 42.645-19.84 18.635-5.332 25.99-9.275 36.02-19.31 16.19-16.198 20.508-34.63 11.457-48.9-1.613-2.545-3.28-4.626-3.705-4.626-.425 0-2.685-1.748-5.022-3.884-2.767-2.53-4.25-4.733-4.25-6.313 0-2.994 4.16-7.06 9.5-9.283l4-1.665-6.153-2.036c-3.385-1.12-7.752-3.354-9.705-4.964-4.352-3.587-9.29-13.564-10.162-20.533-.535-4.275-1.596-6.364-6.094-12-6.13-7.68-8.703-14.488-7.744-20.49.342-2.132.978-4.098 1.415-4.368.437-.27 1.795 2.677 3.017 6.55 3.09 9.79 7.28 14.168 21.603 22.563 25.21 14.777 37.26 32.875 37.308 56.036.037 17.513-4.216 26.735-20.62 44.713-18.827 20.634-25.812 24.914-51.48 31.546-17.103 4.42-28.39 8.82-37.374 14.573-3.293 2.11-5.39 3.113-4.656 2.23zm103.07-69.095c5.656-15.406 4.83-30.446-2.488-45.36-3.755-7.652-6.142-10.896-13.614-18.5-9.82-9.993-9.823-9.31-.017 2.778 7.1 8.754 12.502 18.747 14.707 27.213 2.232 8.57 1.99 27.494-.45 35.34-2.378 7.636-1.114 6.64 1.863-1.47zM35.72 209.258c-3.014-3.166-6.8-8.007-8.41-10.757-2.656-4.53-2.93-5.843-2.92-14 .007-7.812.36-9.66 2.667-14 1.462-2.75 4.833-7.1 7.49-9.664 4.56-4.4 14.285-10.836 16.377-10.836 1.39 0 1.09 6.878-.493 11.316-1.77 4.966-4.155 7.56-8.94 9.727l-3.89 1.76 3.14 1.625c4.085 2.112 4.103 5.283.05 9.135-7.115 6.765-7.804 13.658-2.402 24.023 1.93 3.702 3.352 6.888 3.16 7.08-.192.192-2.815-2.242-5.83-5.41zm-4.945-14.838c-2.082-11.204.66-21.668 7.974-30.42 5.83-6.978 5.85-8.098.037-2-7.257 7.612-10.31 14.57-10.308 23.5 0 6.39 1.925 16.308 2.963 15.27.237-.237-.063-3.095-.668-6.35zm204.138 20.472c-.018-.334 1.542-3.63 3.467-7.323 2.755-5.286 3.5-7.88 3.5-12.186 0-5.103-.3-5.792-4.5-10.28-5.354-5.725-5.715-8.424-1.422-10.644l3.078-1.592-4.32-2.184c-2.376-1.2-5.307-3.67-6.512-5.484-2.07-3.114-4.21-13.65-3.015-14.842 1.132-1.133 13.362 6.298 17.827 10.833 6.53 6.634 9.117 12.494 9.66 21.882.388 6.685.113 8.444-2.06 13.19-2.105 4.6-15.596 20.603-15.704 18.63zm12.93-28.675c.044-11.04-1.874-15.764-9.884-24.352-6.06-6.5-6.73-5.893-.913.824 6.54 7.548 9.27 14.392 9.305 23.31.015 4.125-.3 9.075-.7 11-.712 3.428-.697 3.448.715 1 .964-1.671 1.454-5.576 1.477-11.783zm-190.48-77.244c-.654-1.06.424-3.04 6.618-12.167 5.598-8.247 7.253-13.624 6.677-21.68-.904-12.63-7.337-20.156-17.175-20.094-2.806.017-5.798.58-6.648 1.25-2.37 1.868-4.954 5.97-4.954 7.864 0 1.307.703.997 3.04-1.34 2.54-2.54 3.56-2.936 6.202-2.408 7.298 1.46 10.12 8.743 5.48 14.14-2.62 3.043-8.01 3.717-12.125 1.514-5.706-3.054-7.1-12.73-2.718-18.882 7.112-9.99 24.603-7.08 30.532 5.08 6.856 14.056 3.896 31.5-7.425 43.764-3.628 3.93-6.262 4.97-7.504 2.96zm154.453-3.166c-2.108-2.306-5.32-7.12-7.134-10.698-5.922-11.666-4.888-27.76 2.343-36.49 8.073-9.745 22.168-10.05 28.605-.62 6.588 9.65-2.14 22.79-12.315 18.537-5.78-2.415-7.173-8.405-3.065-13.18 3.115-3.623 8.474-3.792 12.103-.383 4.166 3.915 3.24-.462-.995-4.696-3.33-3.33-3.818-3.497-8.928-3.074-7.38.612-11.744 4.027-14.476 11.328-3.835 10.25-2.147 20.704 4.918 30.468 5.323 7.357 7.213 10.86 6.49 12.03-1.218 1.97-3.812.86-7.546-3.223zm-81.013-11.73c-3.21-3.21-3.805-6.525-1.34-7.47 2.052-.788 15.782-.788 17.835 0 2.464.945 1.87 4.26-1.34 7.47C143.563 96.47 142.19 97 138.38 97c-3.81 0-5.184-.53-7.577-2.923zm-1-14.497c5.16-5.49 10.725-5.692 16.335-.588l3.242 2.95-10.924.03L127.53 82l2.274-2.42zm-28.54-.89c5.918-3.74 11.633-9.045 14.354-13.32 10.94-17.185 6.76-37.458-9.73-47.192-3.79-2.24-5.66-2.65-12-2.64-6.11.007-8.336.47-11.963 2.486-6.447 3.583-10.314 9.562-10.834 16.753-.525 7.256 1.35 12.024 6.18 15.707 3.722 2.84 10.344 3.756 15.334 2.125 2.39-.782 5.592-4.75 6.69-8.292.652-2.1.473-2.162-4.7-1.628-4.99.515-5.533.356-7.545-2.202-6.014-7.645.828-16.624 10.288-13.502 7.69 2.538 11.494 12.613 8.108 21.48-6.138 16.073-29.505 16.478-37.772.654-2.302-4.407-2.792-6.604-2.785-12.484.007-6.1.447-7.9 3.028-12.4 7.94-13.843 24.938-18.163 39.962-10.155 4.154 2.215 7.555 4.99 9.912 8.09 1.973 2.593 4.115 4.742 4.76 4.773 2.823.137 9.96-6.814 12.973-12.638l3.16-6.104 1.59 4.163c2.067 5.414 6.5 10.728 10.95 13.124l3.553 1.913 2.268-2.95c6.773-8.807 14.234-13.19 24.01-14.102 12.536-1.17 22.424 3.996 28.308 14.793 6.08 11.153 2.63 25.73-7.59 32.097-13.85 8.627-31.85.017-31.85-15.237 0-7.8 6.53-15.986 12.756-15.996 3.043-.005 7.8 2.513 8.58 4.54 1.825 4.76-.48 10.818-4.715 12.384-1.167.432-3.636.367-5.487-.144-1.85-.512-3.587-.71-3.857-.438-.97.97 2.905 7.57 5.41 9.213 5.8 3.8 15.945 1.45 20.58-4.77 2.493-3.344 3.376-12.18 1.72-17.203-5.093-15.427-26.317-19.227-39.78-7.122-6.798 6.112-9.623 12.706-9.655 22.535-.043 12.976 5.754 24.082 16.15 30.938 6.888 4.545 5.866 5.274-1.332.95-9.304-5.587-16.592-16.198-17.928-26.1-.892-6.607-1.34-7.366-3.01-5.098-1.454 1.976-1.684 1.668-2.89-3.86-.66-3.018-6.567-11.206-8.085-11.206-1.518 0-7.426 8.188-8.084 11.205-1.21 5.546-1.437 5.835-2.96 3.767-1.62-2.203-1.932-1.632-2.918 5.36-.812 5.765-3.673 12.163-7.725 17.278-3.144 3.97-14.025 11.824-16.218 11.706-.602-.03-.247-.594.79-1.25zm20.304-58.336c-1.373-1.374-.66-3.496 1.063-3.164.962.186 1.75.97 1.75 1.74 0 1.58-1.764 2.472-2.813 1.424zm30.846-.3c-.88-1.424.242-3.054 2.1-3.054.875 0 1.377.703 1.19 1.667-.39 2.01-2.386 2.85-3.29 1.386zm-35.38-7.492c.19-.917.797-1.644 1.347-1.615 1.484.08 1.212 2.316-.346 2.835-.84.28-1.216-.177-1-1.22zM157.38 13c-.816-1.32.38-3.192 1.57-2.457 1.214.75 1.206 3.457-.01 3.457-.52 0-1.22-.45-1.56-1zm-45.86-4.694C110.392 7.18 110.833 6 112.38 6c.825 0 1.5.423 1.5.94 0 1.262-1.562 2.165-2.36 1.366zm52 0C162.392 7.18 162.833 6 164.38 6c.825 0 1.5.423 1.5.94 0 1.262-1.562 2.165-2.36 1.366zM104.88 3.5c0-.825.45-1.5 1-1.5s1 .675 1 1.5-.45 1.5-1 1.5-1-.675-1-1.5zm65 0c0-.825.45-1.5 1-1.5s1 .675 1 1.5-.45 1.5-1 1.5-1-.675-1-1.5zm-72-1.94c0-.858.45-1.56 1-1.56s1 .423 1 .94c0 .52-.45 1.22-1 1.56-.55.34-1-.084-1-.94zm79.543.51c-.317-.513-.118-1.214.44-1.56.56-.345 1.017.074 1.017.93 0 1.758-.6 2.016-1.457.63zM89.88 1c0-.55.45-1 1-1s1 .45 1 1-.45 1-1 1-1-.45-1-1zm95 0c0-.55.45-1 1-1s1 .45 1 1-.45 1-1 1-1-.45-1-1z" fill="#394b5f"/></svg>