<svg xmlns="http://www.w3.org/2000/svg" viewBox="0 0 446.18213 503.88132" height="503.881" width="446.182"><path d="M223.084 502.803c-6.3-1.477-15.823-6.622-21.577-11.655-16.22-14.188-21.447-36.29-12.847-54.314 4.267-8.942 11.026-17.345 17.223-21.41 2.515-1.65 4.582-3.347 4.594-3.77.076-2.636-25.407-99.37-26.334-99.966-.63-.404-3.26-.742-5.845-.75-12.294-.04-28.63-6.884-40.414-16.93l-7.114-6.066-28.886 17.484L73 322.91l-.573 8.783c-.48 7.378-1.1 9.774-3.882 14.993-3.915 7.344-10.702 14.005-18.163 17.824-4.516 2.31-6.67 2.762-13.383 2.796-11.06.057-17.073-2.167-24.53-9.07-3.976-3.682-7.014-7.687-9.203-12.134C.4 340.278 0 338.482 0 331.444c0-6.625.47-9.025 2.703-13.79 3.405-7.268 12.117-16.073 19.037-19.24 11.172-5.116 21.76-4.282 33.19 2.613l6.504 3.922 22.783-13.834c38.476-23.362 35.494-21.245 34.8-24.693-.334-1.65-.862-8.672-1.176-15.604-.458-10.16-.238-13.747 1.135-18.5 2.568-8.89 7.947-18.375 15.27-26.924l6.58-7.68-3.162-6.416c-4.26-8.638-4.177-12.28.37-16.274 6.236-5.474 13.397-3.12 17.972 5.908 1.416 2.795 3.27 5.35 4.12 5.675.85.326 3.997.044 6.992-.626 6.962-1.558 19.452-1.563 25.882-.01 2.75.664 8.788 2.955 13.42 5.092l8.42 3.886 2.444-2.265c9.455-8.756 110.684-117.41 110.564-118.675-.084-.874-1.397-4.514-2.92-8.09-5.625-13.215-4.215-29.88 3.536-41.778 12.16-18.67 33.712-28.028 52.104-22.626 13.872 4.075 26.576 14.845 33.07 28.034 3.225 6.553 3.36 7.294 3.36 18.35 0 9.59-.383 12.533-2.292 17.56-6.633 17.47-24.27 30.208-43.235 31.226-7.464.4-9.458.12-16-2.257-4.108-1.493-8.596-2.925-9.97-3.182-2.213-.413-8.377 5.787-53.543 53.854-28.074 29.876-53.24 56.7-55.924 59.61l-4.882 5.29 4.616 9.21c2.538 5.066 5.143 11.985 5.788 15.376 1.134 5.963.797 23.386-.608 31.422-.604 3.453-.435 3.712 4.482 6.867 6.74 4.324 9.07 7.43 9.07 12.077 0 3.054-.664 4.345-3.534 6.865-4.575 4.016-7.68 3.96-15.678-.282l-6.38-3.384-5.992 5.145c-3.296 2.828-8.338 6.648-11.204 8.487-3.73 2.395-5.187 3.953-5.126 5.49.047 1.18 5.56 23.742 12.25 50.138L231 405.408l8.11 1.673c18.633 3.844 32.776 15.718 39.14 32.86 6.255 16.854 2.412 33.352-11.108 47.684-12.47 13.218-28.65 18.793-44.058 15.18zm20.305-22.342c6.217-2.192 10.72-6.117 13.56-11.815 3.413-6.848 3.654-19.81.49-26.343-6.245-12.902-22.79-17.802-38.002-11.258-8.27 3.558-12.58 10.34-13.623 21.437-.857 9.12 1.607 16.463 7.493 22.338 2.58 2.575 6.266 5.18 8.19 5.79 5.12 1.624 17.102 1.543 21.89-.147zM43.464 345.17c10.93-5.513 9.596-24.902-1.952-28.36-5.154-1.546-13.816.208-16.818 3.404-4.397 4.68-4.726 17.217-.575 21.874 4.28 4.803 13.138 6.214 19.345 3.083zm146.803-56.755c13.28-3.13 21.714-9.958 27.567-22.313 3.005-6.344 3.164-7.28 3.164-18.68 0-10.822-.255-12.54-2.587-17.5-3.308-7.035-11.372-15.846-17.574-19.204-11.288-6.11-27.577-6.31-39.676-.49-8.945 4.304-15.05 10.3-19.03 18.695-2.674 5.638-3.133 7.846-3.47 16.66-.293 7.728.028 11.44 1.34 15.5 6.914 21.382 27.658 32.662 50.264 27.332zm192.954-215.6c4.842-2.344 8.778-6.62 11.41-12.392 2.313-5.075 2.455-16.418.285-22.786-2.027-5.95-8.182-12.105-14.132-14.133-5.456-1.86-15.94-2.065-21.427-.42-5.068 1.517-11.39 7.006-14.05 12.196-2.58 5.03-3.585 16.76-1.88 21.927 2.613 7.917 10.8 15.877 18.307 17.797 5.08 1.3 16.73.113 21.487-2.19zm18 341.747c-6.58-1.85-15.2-8.032-19.92-14.282-5.49-7.276-7.803-13.894-7.803-22.348v-6.97l-3.973-2.025c-2.185-1.115-5.56-3.42-7.5-5.124-2.98-2.616-3.528-3.747-3.528-7.272 0-5.095 2.14-8.36 6.74-10.282 3.334-1.394 3.787-1.307 10.972 2.105 4.122 1.958 7.943 3.56 8.49 3.56.548 0 3.54-1.562 6.646-3.47 7.918-4.863 16.23-6.84 23.213-5.525 12.014 2.264 23.362 11.245 28.737 22.742 3.975 8.503 3.838 18.357-.38 27.255-7.75 16.352-26.288 25.972-41.695 21.637zm19.276-24.138c6.418-6.15 5.935-17.726-1-24.004-1.785-1.614-3.615-1.997-9.538-1.997-6.687 0-7.59.248-10.29 2.835-5.284 5.063-6.49 15.337-2.52 21.495 2.323 3.607 7.03 5.24 14.082 4.888 5.29-.263 6.692-.75 9.266-3.216zm-103-51.617c-15.55-8.475-36.6-21.338-39.25-23.983-4.19-4.187-3.876-9.704.786-13.798 4.125-3.622 6.325-3.802 12.465-1.022 9.21 4.172 38.513 21.544 42.19 25.014 5.185 4.893 5.318 9.596.41 14.505-4.484 4.483-7.282 4.362-16.6-.716zM122.92 157.954c-3.073-1.243-6.662-5.916-12.51-16.285-8.22-14.578-13.91-26.847-13.91-30.002 0-4.396 4.826-8.745 9.702-8.745 5.345 0 7.44 1.794 13.145 11.266 10.442 17.335 16.154 29.435 16.154 34.222 0 4.125-.345 4.747-4.15 7.504-4.404 3.19-5.143 3.368-8.432 2.038zM81.712 86.448c-1.618-1.36-4.213-4.904-5.768-7.874l-2.827-5.4-6.784-.63c-3.73-.347-9.285-1.567-12.343-2.71-7.69-2.878-16.55-11.254-20.594-19.47-2.98-6.054-3.116-6.84-2.703-15.658.53-11.263 2.49-15.628 10.726-23.863C50.195 2.066 53.985.466 66 .47c9.044 0 10.52.272 15.453 2.847 6.73 3.51 14.99 11.817 18.162 18.263 2.01 4.082 2.382 6.334 2.37 14.343-.014 8.466-.325 10.098-2.858 15-1.564 3.025-3.936 6.666-5.272 8.092l-2.428 2.593 3.536 7.38c1.945 4.058 3.536 8.2 3.536 9.206 0 3.14-2.91 7.63-5.968 9.212-4.193 2.168-7.447 1.88-10.82-.958zM74.5 49.17c9.654-4.822 9.327-22.705-.49-26.808-7.124-2.976-16.755-1.048-20.075 4.018-4.34 6.626-3.34 16.665 2.145 21.48 3.023 2.653 4.253 3.062 9.204 3.06 3.437 0 7.11-.697 9.215-1.75z" fill="#f39f18"/></svg>