<svg xmlns="http://www.w3.org/2000/svg" width="196.516" height="153.509" viewBox="0 0 196.51625 153.509"><path d="M91.174 152.71c-4.417-1.284-9.477-7.036-11.533-13.11l-1.795-5.305-23.616-12.8-23.618-12.798-3.206 2.287c-2.56 1.827-4.533 2.288-9.785 2.288-5.712 0-7.075-.38-10.368-2.892-10.578-8.068-9.404-23.092 2.343-29.974 4.397-2.576 12.037-2.46 16.633.25 1.972 1.164 4 2.116 4.51 2.116.51 0 11.468-5.68 24.355-12.622C78.12 57.744 78.533 57.466 79.178 53.9c1.532-8.48 9.228-15.128 17.513-15.128 14.318 0 22.758 15.12 15.144 27.126-5.91 9.32-17.195 10.88-27.165 3.755-1.213-.866-6.468 1.58-25.288 11.762C39.95 91.93 35.677 94.622 35.912 96.2c.206 1.383 6.987 5.557 24.067 14.813L83.76 123.9l2.974-2.504c5.525-4.65 15.15-4.413 21.43.527 3.622 2.85 6.535 9.023 6.535 13.85 0 12.095-11.562 20.42-23.526 16.938zm.596-39.69c-9.258-4.72-12.75-16.002-7.648-24.707 5.657-9.653 17.608-11.567 27.61-4.42 1.214.867 6.456-1.56 25.293-11.707 20.035-10.793 23.716-13.12 23.468-14.835-.22-1.525-6.198-5.222-23.97-14.825l-23.678-12.792-3.674 2.493c-9.158 6.216-20.482 3.325-25.5-6.51C76.825 12.297 89.638-3.558 103.883.71c5.897 1.765 10.628 6.613 12.72 13.034l1.783 5.472 23.562 12.774 23.562 12.773 4.344-2.483c10.632-6.078 24.194.177 26.45 12.2 1.262 6.727-3.248 15.504-9.675 18.828-4.16 2.15-12.747 1.873-16.705-.54-1.8-1.098-3.73-1.996-4.288-1.996-.557 0-11.48 5.638-24.276 12.528L118.1 95.83l-1.22 4.565c-.673 2.512-2.36 6.06-3.752 7.884-4.594 6.022-14.52 8.226-21.356 4.74z" fill="#f39f18"/></svg>