<svg xmlns="http://www.w3.org/2000/svg" viewBox="0 0 412.18411 408.75427" height="408.754" width="412.184"><path d="M395.527 405.392c-23.734-5.47-50.258-14.138-63.273-20.68l-5.773-2.9-11.226 2.265c-15.915 3.212-47.476 3.225-61.91.026-26.68-5.913-48.533-17.215-65.195-33.716-31.61-31.302-39.776-73.406-21.57-111.21 15.42-32.024 49.603-55.672 92.447-63.96 13.686-2.646 38.744-2.453 53.023.41 55.582 11.14 94.257 48.05 99.602 95.056 2.41 21.187-3.44 44.283-15.822 62.468-3.8 5.58-5.303 8.74-5.303 11.14 0 10.59 7.276 34.773 16.074 53.426 2.71 5.743 4.927 10.6 4.927 10.794 0 .548-.584.434-16-3.118zM242.317 296.97c4.582-2.34 6.687-4.612 8.672-9.362 2.078-4.976 1.934-8.293-.584-13.496-4.487-9.268-16.253-12.577-24.743-6.958-4.308 2.85-8.15 9.608-8.114 14.274.026 3.605 3.033 10.366 5.585 12.56 5.892 5.06 12.955 6.16 19.182 2.98zm50.895.83c9.124-3.45 13.908-14.916 9.694-23.237-3.52-6.95-8.16-9.93-15.46-9.93-12.626 0-21.33 13.8-15.64 24.803 3.878 7.498 13.62 11.304 21.406 8.363zm52.893-.834c7.376-3.35 11.318-11.16 9.566-18.957-1.896-8.445-8.258-13.378-17.248-13.378-14.36 0-22.093 17.102-12.615 27.897 5.597 6.373 12.642 7.913 20.298 4.436zM4.425 334.062c14.357-28.552 24.756-60.664 26.685-82.398l.683-7.698-4.987-6.802C2.673 204.248-5.79 162.734 3.714 123.884 18.89 61.847 77.72 14.006 153.124 2.384c76.496-11.79 157.813 21.04 195.182 78.805 13.548 20.94 22.196 48.72 22.215 71.36l.007 7.186-9.25-4.375c-5.088-2.406-13.3-5.73-18.25-7.384l-9-3.01-1.583-7.3C321.332 86.4 274.51 47.798 212.016 38.38c-12.862-1.94-39.793-1.935-53.46.007-61.56 8.75-109.85 48.286-120.26 98.462-2.515 12.126-2.026 32.404 1.064 44.106 4.088 15.48 13.352 31.478 26.194 45.23l7.056 7.554-1.596 9.31c-2.08 12.132-5.938 27.972-9.662 39.653-1.637 5.137-2.747 9.57-2.465 9.853 1.444 1.444 32.502-10.97 50.115-20.033 6.587-3.388 12.266-6.29 12.62-6.45.356-.16.87 7.264 1.143 16.5.273 9.234.807 17.52 1.187 18.41 2.53 5.946-59.18 27.96-106.17 37.874-7.835 1.653-14.927 3.005-15.76 3.005-1.15 0-.57-1.886 2.404-7.8z" fill="#f39f18"/></svg>