<svg xmlns="http://www.w3.org/2000/svg" viewBox="0 0 512.09625 435.59598" height="435.596" width="512.096"><path d="M474 434.367c-3.843-1.323-10.674-7.782-46.76-44.213l-42.26-42.663 19.76-19.85 19.76-19.85 29.867 30.33c35.258 35.806 51.877 53.773 54.323 58.73 1.22 2.47 1.783 5.96 1.794 11.102.013 6.455-.396 8.244-2.938 12.833-3.258 5.882-6.72 9.195-12.9 12.348-5.318 2.713-14.72 3.275-20.646 1.234zm-233-75.41c-23.117-1.678-52.076-10.92-74.194-23.677-35.83-20.666-65.885-57.62-79.7-97.99-11.548-33.744-11.817-79.26-.666-112.59C114.133 41.93 194.97-9.604 279.7 1.5c52.133 6.83 97.952 34.644 126.28 76.656 6.408 9.5 12.07 19.277 14.413 24.886l1.498 3.585-9.195 6.97c-5.057 3.835-10.85 8.21-12.872 9.726l-3.677 2.755-5.644-11.036c-7.837-15.32-16.21-26.8-28.514-39.09-21.695-21.67-46.418-34.974-76.327-41.07-13.076-2.664-41.658-2.877-54.553-.406-25.027 4.795-49.072 16.306-69.38 33.215-24.533 20.428-43.546 53.555-49.222 85.762-2.19 12.422-2.172 43.318.03 54.11 9.2 45.11 39.077 84.558 78.965 104.27 13.4 6.62 22.24 9.64 37.35 12.76 16.86 3.483 40.137 3.685 56.098.486 56.715-11.364 101.16-52.787 115.483-107.626 1.438-5.5 3.07-11.687 3.63-13.75.868-3.19 2.768-5.064 12.73-12.56 6.44-4.845 13.847-10.267 16.46-12.048l4.75-3.238v3.577c0 7.395-3.14 33.32-4.968 41.02-4.556 19.187-14.187 41.878-24.404 57.5l-5.56 8.5 7.96 8.014 7.96 8.016-19.487 19.468-19.486 19.47-7.922-7.877-7.923-7.876-9.835 6.04c-23.022 14.137-48.237 23.486-70.516 26.145-11.747 1.403-31.65 1.916-42.82 1.105zM0 296.202v-14.75l3.25-2.583c33.574-26.687 59.13-45.938 59.927-45.14.53.528 2.688 5.632 4.8 11.342l3.836 10.38-2.657 2.165C56.386 268.023 1.334 310.942.75 310.947c-.413.003-.75-6.632-.75-14.745zm213.344-24.246c-3.437-1.387-6.868-7.198-28.337-48.004-11.14-21.175-20.39-38.653-20.556-38.84-.873-.995-5.244 1.827-17.45 11.27-7.425 5.744-13.877 10.073-14.337 9.62-.937-.922-3.645-17.783-3.656-22.76-.007-2.97 1.247-4.187 16.704-16.217 9.193-7.154 17.968-13.282 19.5-13.62 1.535-.336 4.173-.308 5.864.063 4.02.883 5.792 3.724 25.876 41.484 15.967 30.02 17.578 32.806 18.46 31.924.243-.244 8.823-26.99 19.066-59.433 27.384-86.743 28.342-89.567 31.48-92.815 3.49-3.61 9.86-4.68 13.533-2.275 2.84 1.862 12.765 21.183 35.928 69.944 21.043 44.3 24.435 50.86 25.862 50.016 3.358-1.984 53.677-39.983 107.67-81.31 33.248-25.447 61.036-46.492 61.75-46.766 1.83-.702 1.876 26.61.05 28.9-1.776 2.23-95.237 74.125-153.613 118.17-26.118 19.706-25.056 20.116-43.116-16.668-7.07-14.404-18.184-37.378-24.695-51.054-6.51-13.677-12.286-24.865-12.832-24.864-1.218.003-2.762 4.595-21.594 64.23-17.907 56.706-25.71 80.58-27.493 84.115-1.38 2.74-6.896 5.93-10.058 5.822-1.018-.036-2.82-.456-4.006-.934z" fill="#f39f18"/></svg>