<svg xmlns="http://www.w3.org/2000/svg" viewBox="0 0 265.99994 157.64075" height="157.641" width="266"><path d="M109.5 156.996c-9.895-1.346-18.285-3.627-22.168-6.027C84.4 149.156 84 148.4 84 144.65c0-5.584 4.605-14.763 10.487-20.902 5.51-5.752 14.968-12 21.388-14.133l4.748-1.577-4.184-4.367c-8.74-9.12-12.483-22.93-9.032-33.32 6.696-20.16 33.123-25.325 46.946-9.176 9.88 11.543 8.24 29.94-3.793 42.497l-4.183 4.368 4.748 1.577c16.208 5.383 32.546 23.69 31.69 35.508-.292 4.028-.642 4.512-4.815 6.65-7.69 3.945-17.754 5.384-40.5 5.795-11.55.21-24.15-.05-28-.572zM0 104.726v-6.35l10.677-6.9c14.707-9.508 14.863-9.536 5.823-1.02l-8 7.538 47.09.04 47.09.04 1.365 2.75c1.938 3.9 1.954 3.864-3.33 7.215l-4.784 3.033H0v-6.348zm166 3.24c-4.982-3.27-4.976-3.257-3.045-7.143l1.366-2.75 47.09-.04 47.09-.04-8-7.57c-8.234-7.79-7.848-7.698 6.79 1.65l8.612 5.5.05 6.75.048 6.75-47.75-.077-47.75-.078-4.5-2.954zM63 80.425c-9.157-1.376-14.946-2.795-18.225-4.468C41.68 74.378 41 73.495 41 71.042c0-8.407 10.333-20.717 21.458-25.564l6.382-2.78-3.845-4.368c-7.234-8.218-8.837-18.167-4.372-27.127C64.193 4.036 69.207.783 77.487.255c7.545-.48 11.892 1.28 16.936 6.864 7.89 8.734 6.936 21.64-2.387 32.26l-2.95 3.36 5.35 2.218c2.94 1.22 7.075 3.71 9.185 5.533l3.837 3.317-2.776 4.006C100.95 63.196 98 71.23 98 76.003v3.91l-6.254.67c-3.44.37-7.602.518-9.25.33l-2.996-.34 4.912-5.276 4.912-5.277-4.31-10.526c-3.24-7.918-4.024-10.81-3.16-11.673 1.883-1.883 1.367-2.242-3.37-2.343-4.236-.09-4.418.012-2.935 1.65 1.452 1.606 1.22 2.62-2.896 12.596l-4.475 10.85 5.126 5.25 5.126 5.25-6.466-.136c-3.556-.075-7.59-.305-8.966-.512zm109.25-.01c-3.035-.438-3.25-.73-3.25-4.395 0-4.79-2.945-12.817-6.68-18.207l-2.777-4.006 3.836-3.316c2.11-1.823 6.243-4.313 9.185-5.532l5.35-2.217-2.95-3.36c-7.004-7.977-9.534-17.91-6.55-25.72 2.157-5.65 9.196-12.235 14.05-13.146 10.712-2.01 19.554 1.943 23.912 10.69 4.465 8.96 2.862 18.908-4.372 27.126l-3.845 4.368 6.382 2.78C215.664 50.323 226 62.635 226 71.038c0 3.495-3.15 5.536-12 7.773-5.476 1.385-35.328 2.532-41.75 1.606z" fill="#f39f18"/></svg>