<svg xmlns="http://www.w3.org/2000/svg" width="230.514" height="254.79" viewBox="0 0 230.51448 254.79012"><path d="M16.972 253.875c-7.37-2.242-11.737-6.068-14.91-13.065-2.004-4.423-2.04-6.063-2.06-95.884-.018-69.147.274-92.386 1.2-95.5 1.606-5.412 8.98-12.787 14.393-14.394 2.33-.692 9.813-1.222 17.25-1.222H45.98v11H32.93c-14.146 0-17.308.843-20.303 5.413-1.5 2.29-1.648 10.674-1.648 93.6 0 99.99-.29 95.235 5.966 98.47 2.55 1.32 13.408 1.516 83.233 1.513 78.454-.004 80.374-.05 83.57-1.998 1.798-1.096 3.76-3.068 4.357-4.382.86-1.887 2.137-2.527 6.097-3.052 2.754-.365 5.253-.42 5.552-.12 1.142 1.142-2.007 8.748-5.065 12.23-1.758 2.004-5.45 4.692-8.204 5.974l-5.007 2.332-81-.076c-44.55-.042-82.13-.42-83.508-.84zm157.007-32.94c-37.085-11.916-40.64-63.828-5.5-80.272 26.545-12.422 56.46 3.22 61.49 32.156 3.024 17.405-6.814 37.233-22.44 45.223-9.674 4.946-23.46 6.135-33.55 2.892zm14.27-16.794c8.016-11.59 14.936-20.407 21.562-27.475 5.066-5.403 7.167-8.4 7.167-10.227 0-3.267-4-6.096-7.408-5.24-2.763.692-14.134 12.642-22.23 23.362-3.01 3.987-5.62 7.25-5.798 7.25-.177 0-3.535-4.275-7.462-9.5-6.154-8.188-7.543-9.5-10.05-9.5-3.553 0-6.053 2.31-6.053 5.592 0 2.18 13.25 21.516 19.3 28.158 3.485 3.828 7.217 3.005 10.97-2.42zm-146.517-5.58c-1.363-3.708-.842-3.75 46.17-3.75h45.755l1.14 2.5 1.138 2.5H89.064c-36.585 0-46.972-.275-47.33-1.25zm0-38c-1.366-3.714-.903-3.75 47.808-3.75h47.396l-1.14 2.5-1.138 2.5H88.425c-36.074 0-46.333-.275-46.692-1.25zm152.496-35.483l-4.25-.382V90.22c0-37.43-.21-39.07-5.515-43.242-2.526-1.988-3.912-2.168-16.62-2.168h-13.866v-11l13.25.005c15.685.007 19.53.9 24.976 5.81 7.745 6.984 7.726 6.866 7.75 48.935.013 20.487-.315 37.17-.727 37.075-.414-.096-2.664-.347-5-.558zm-151.772-1.66c-1.618-1.182-1.703-1.633-.57-3 1.2-1.443 7.217-1.607 58.745-1.607 50.322 0 57.48.186 57.99 1.512.318.832.024 2.182-.655 3-1.79 2.157-112.566 2.25-115.51.096zm-.48-38.107c-.992-1.197-.992-1.804 0-3 1.08-1.302 8.83-1.5 58.516-1.5 51.968 0 57.33.15 57.895 1.626 1.67 4.355 1.425 4.374-58.41 4.374-49.23 0-56.92-.2-58-1.5zm17.656-37.33c-1.38-1.523-1.655-4.237-1.655-16.3 0-9.92.376-14.848 1.2-15.67.77-.772 4.783-1.205 11.25-1.215l10.05-.014 2.692-4.883c5.35-9.706 18.45-12.9 27.727-6.76 2.182 1.446 5.16 4.663 6.618 7.15l2.65 4.523h9.706c6.215 0 10.136.43 10.905 1.2.827.828 1.2 5.925 1.2 16.464 0 14.07-.153 15.346-1.936 16.3-1.237.663-15.78 1.036-40.345 1.036-35.942 0-38.518-.118-40.066-1.83zm46.89-21.625c5.506-5.506 1.464-15.545-6.26-15.545-2.468 0-4.264.825-6.362 2.923-3.727 3.726-3.84 7.833-.334 12 3.406 4.048 9.25 4.33 12.956.622z" fill="#f39f18"/></svg>