<svg xmlns="http://www.w3.org/2000/svg" width="431.825" height="415.584" viewBox="0 0 431.82489 415.58435"><path d="M199.826 414.047c-5.665-2.922-7.603-8.283-11.48-31.756-1.888-11.437-3.687-21.05-3.996-21.358-.31-.31-10.952.886-23.65 2.656l-23.09 3.217-4.393-2.575c-7.538-4.417-10.41-13.432-6.74-21.162 3.008-6.34 6.682-7.612 34.35-11.88 9.624-1.487 17.868-3.036 18.32-3.444.45-.407-.338-9.172-1.75-19.477-1.414-10.305-2.57-21.598-2.57-25.097 0-5.934.234-6.596 3.49-9.852 8.906-8.906 22-6.386 25.874 4.98.85 2.49 2.983 13.508 4.742 24.485l3.198 19.96h2.73c1.5 0 12.067-1.352 23.48-3.003l20.75-3.002 4.08 2.252c5.745 3.172 8.656 7.87 8.656 13.965 0 7.813-3.676 13.07-10.434 14.923-2.236.613-12.84 2.53-23.566 4.26l-19.5 3.147-.254 3.978c-.14 2.188 1.036 12.754 2.61 23.48 2.83 19.258 2.843 19.544 1.015 23.19-4.123 8.22-14.326 12.006-21.87 8.114zm-145.5-98.787c-25.503-6.886-44.253-24.38-51.466-48.018-1.175-3.85-2.4-11.284-2.722-16.52-2.498-40.587 29.166-74.062 70.097-74.108 9.68-.01 14.546.817 23.998 4.086 3.25 1.123 6.497 2.042 7.218 2.042.723 0 4.516-4.163 8.43-9.25 25.9-33.66 53.706-57.3 84.446-71.8 24.543-11.573 60.327-21.402 91.177-25.04 9.217-1.09 13.57-2.204 12.294-3.15-2.283-1.697-17.685-15.308-22.296-19.705-7.046-6.72-8.674-9.6-8.674-15.358 0-8.35 7.004-14.698 16.214-14.698 4.51 0 5.348.486 17.015 9.877 16.07 12.935 40.363 33.813 49.642 42.665 6.94 6.62 7.412 7.346 7.868 12.085.34 3.532-.014 6.004-1.18 8.258-2.362 4.568-42.007 50.71-53.582 62.364-9.625 9.69-9.714 9.75-14.58 9.746-8.074-.006-14.437-5.45-15.993-13.68-1-5.286 1.14-9.262 11.74-21.816 18.402-21.798 19.856-23.596 19.856-24.552 0-1.51-9.456-1.088-23.188 1.032-44.28 6.835-81.49 21.552-105.812 41.85-14.956 12.482-31.27 30.002-42.33 45.458l-5.573 7.787 2.793 4.738c4.375 7.42 7.816 16.987 9.163 25.48 1.442 9.103.738 23.93-1.473 30.975-9.656 30.772-36.843 50.883-68.49 50.666-5.275-.036-11.84-.673-14.59-1.416zm31.827-34.358c7.428-3.657 15.126-11.378 18.817-18.874 2.022-4.107 2.356-6.277 2.356-15.286 0-9.518-.266-11.043-2.848-16.3-3.634-7.403-10.957-14.725-18.354-18.355-5.253-2.578-6.783-2.845-16.298-2.845-9.594 0-11.016.253-16.487 2.94-7.634 3.747-14.356 10.473-18.073 18.082-2.63 5.385-2.92 6.97-2.93 15.978-.01 8.75.322 10.71 2.65 15.675 4.693 10.012 13.73 18.04 24.125 21.432 2.6.848 7.336 1.257 12.37 1.068 6.78-.256 9.252-.848 14.67-3.516zm252.914 23.845c-1.792-1.093-4.186-3.454-5.318-5.246-2.637-4.17-2.176-10.64 2.443-34.258 1.83-9.35 2.95-17.423 2.49-17.94-.46-.515-10.06-2.84-21.337-5.163-11.276-2.324-22.194-5.052-24.26-6.062-7.645-3.735-10.11-14.12-5.247-22.116 4.68-7.7 9.6-8.052 37.97-2.723 10.582 1.986 19.376 3.475 19.543 3.307.168-.168 2.154-9.53 4.415-20.805 2.32-11.577 5.078-22.452 6.334-24.983 5.156-10.394 18.975-11.288 26.12-1.69 3.022 4.06 2.703 12.403-1.32 34.492-1.893 10.395-2.955 18.663-2.456 19.114.484.437 7.405 2.037 15.38 3.555 18.492 3.522 28.763 6.126 31.673 8.033 3.044 1.995 6.327 8.58 6.325 12.69-.003 6.84-5.31 13.274-12.12 14.693-3.495.73-18.164-1.198-36.83-4.836-11.882-2.316-11.4-2.534-13.1 5.932-4.675 23.247-8.087 37.562-9.45 39.644-4.088 6.238-14.63 8.4-21.258 4.36zM41.154 137.85c-4.516-2.1-6.85-4.956-8.362-10.23-1.227-4.277.096-8.94 8.423-29.678 3.467-8.635 6.547-16.68 6.845-17.876.49-1.97-.81-2.758-13.803-8.354C9.22 60.927 5.652 58.875 3.012 53.742c-3.883-7.55-1.994-15.068 5.12-20.38 4.906-3.662 10.374-2.668 31.302 5.69 10.39 4.15 19.764 7.69 20.83 7.868 1.585.264 2.79-1.575 6.67-10.178C79.854 8.092 81.16 5.59 84.538 3.012c7.213-5.5 18.155-3.2 22.496 4.73 3.135 5.728 2.022 11.27-6.54 32.58-4.217 10.493-7.668 19.546-7.668 20.117 0 .57 7.76 4.36 17.243 8.42 25.364 10.86 30.14 14.63 30.14 23.785 0 5.763-3.102 11.087-7.997 13.726-5.106 2.753-11.92 1.354-31.387-6.445C91.2 96.07 82.4 92.647 81.266 92.32c-2.39-.687-2.347-.765-12.154 21.922-3.567 8.25-7.383 16.473-8.482 18.274-3.792 6.218-12.47 8.595-19.476 5.335z" fill="#f39f18"/></svg>