<svg xmlns="http://www.w3.org/2000/svg" width="512" height="387.252" viewBox="0 0 512 387.25241"><path d="M212 386.96c-37.697-4.25-61.153-11.055-79.016-22.93-16.852-11.203-21.962-23.06-15.08-34.99 1.585-2.75 4.05-6.085 5.477-7.412l2.595-2.413 10.762 5.072c18.025 8.492 39.56 14.264 64.763 17.357 12.776 1.568 47.87 1.568 61.5 0 24.582-2.828 48.377-9.224 65.826-17.695 10.128-4.917 9.875-4.927 14.874.59 21.08 23.267-13.722 51.415-74.896 60.578-9.725 1.456-48.94 2.728-56.804 1.84zm-3.67-63.513c-40.182-3.584-75.55-17.296-88.252-34.216-8-10.654-7.356-19.46 2.14-29.33l3.983-4.14 10.15 4.8c26.84 12.696 58.104 18.89 95.656 18.95 37.748.06 69.396-6.156 96.706-18.994l10.213-4.8 3.494 3.867c10.542 11.67 10.06 22.468-1.512 33.86-22.55 22.196-78.403 34.837-132.58 30.004zM378 309.87c-2.475-.175-8.85-.817-14.164-1.426l-9.664-1.108 4.92-6.104c6.368-7.903 9.157-15.16 9.3-24.192.06-3.85-.21-8.125-.6-9.5l-.706-2.5 22.283.344c41.528.64 75.542-5.74 102.34-19.198l9.17-4.605 3.68 4.23c7.44 8.552 9.19 16.482 5.378 24.358-2.46 5.08-12.448 14.594-20.095 19.14C464.92 304.12 418.138 312.722 378 309.87zM85.5 284.41c-35.147-4.414-63.768-15.73-77.81-30.76-10.147-10.863-10.22-20.376-.25-31.837l3.68-4.23 8.69 4.365c20.967 10.528 48.487 17.28 78.19 19.186 5.775.372 11.04 1.1 11.697 1.62.88.696-.03 2.456-3.417 6.613-7.746 9.51-9.78 15.006-9.78 26.427 0 11.107 1.218 10.153-11 8.618zm127.37-23.882c-37.727-2.765-70.575-13.658-87.1-28.886-9.39-8.65-12.71-15.894-10.704-23.344 5.18-19.238 36.507-35.14 83.434-42.35 13.502-2.075 46.023-2.332 62-.49 34.71 4 63.813 14.39 78.818 28.14 14.283 13.086 14.338 24.752.18 37.726-6.84 6.268-21.226 14.326-32.998 18.485-24.353 8.604-62.655 12.99-93.63 10.72zM381 246.946c-13.755-1.174-27-2.705-27-3.122 0-.262 1.795-2.516 3.99-5.01 8.987-10.21 12.712-24.086 9.47-35.274-.38-1.306 3.013-1.502 26.302-1.516 20.525-.012 29.41-.427 38.238-1.787 24.076-3.708 47.93-10.78 61.892-18.35l6.39-3.465 3.376 3.27c4.363 4.23 8.342 12.265 8.342 16.848 0 9.67-10.418 21.256-26.725 29.72-16.363 8.494-34.348 13.74-57.275 16.703-11.786 1.523-38.956 2.67-47 1.983zm-298-26.03c-22.225-3.005-40.258-8.342-56.275-16.656C10.418 195.796 0 184.21 0 174.54c0-4.583 3.98-12.617 8.342-16.847l3.375-3.27 6.39 3.465c19.373 10.503 51.204 18.22 83.232 20.18l11.838.723-4.463 4.626c-9 9.326-13.4 20.85-12.334 32.314.567 6.093.45 6.8-1.123 6.707-.966-.056-6.482-.74-12.257-1.522zm282.044-38.582c-9.706-1.078-12.602-2.235-19.544-7.808-10.73-8.614-33.267-18.26-53.645-22.96l-9.645-2.224-2.605-4.786c-4.64-8.524-3.183-16.464 4.678-25.504l3.47-3.99 10.873 5.196c12.094 5.778 18.687 8.118 33.236 11.796 51.927 13.126 119.796 7.77 160.433-12.662l7.964-4.004 3.887 3.796c15.566 15.2 7.716 32.32-21.647 47.21-14.917 7.564-37.636 13.586-60.71 16.092-11.575 1.257-44.86 1.168-56.746-.152zM88.5 158.434c-22.436-2.696-45.335-8.937-59.715-16.276-28.6-14.595-36.33-31.94-20.932-46.974l3.888-3.796 7.965 4.004c16.328 8.21 38.4 14.405 63.295 17.766 15.415 2.08 49.86 2.363 65.5.537 24.692-2.884 49.743-9.74 67.083-18.362l8.635-4.293 3.484 4c7.54 8.658 9.242 16.853 5.225 25.15-5.912 12.213-27.64 25.11-53.592 31.812-21.49 5.55-31.107 6.725-57.835 7.07-13.75.178-28.6-.11-33-.638zm286-38.543c-1.65-.19-7.275-.834-12.5-1.427-46.607-5.288-85-26.138-85-46.16 0-6.447 1.932-10.707 7.61-16.776 12.678-13.555 39.424-24.45 72.39-29.485 14.768-2.256 44.834-3.048 60.58-1.595C470.72 29.35 512 50.223 512 72.192c0 5.78-3.532 11.727-11.16 18.79-19.877 18.403-62.372 29.885-108.84 29.408-7.975-.082-15.85-.307-17.5-.5zM93 95.52C47.333 90.754 11.207 75.06 1.968 55.976-8.862 33.603 26.966 9.9 84.5 1.375c13.748-2.038 55.055-1.753 69.29.477 24.145 3.783 45.667 10.582 59.552 18.813 8.34 4.943 18.083 14.255 20.188 19.293 9.383 22.457-25.436 46.103-79.726 54.142-12.273 1.817-48.828 2.672-60.804 1.42z" fill="#f39f18"/></svg>