<svg xmlns="http://www.w3.org/2000/svg" viewBox="0 0 221.07385 244.89629" height="244.896" width="221.074"><path d="M106.173 242.4c-2.87-3.648-3.528-8.43-2.478-17.98.498-4.535.56-8.03.135-7.77-2.278 1.41-4.078 7.59-4.533 15.567-.312 5.478-.918 8.782-1.612 8.78-.61-.003-2.585-.903-4.386-2-6.303-3.843-6.96-11.525-1.83-21.368 2.387-4.58 2.888-6.2 1.683-5.447-3.95 2.467-8.944 12.42-9.035 18.008-.063 3.873-1.518 4.254-6.217 1.627-5.28-2.952-7.006-5.537-4.61-6.902 2.69-1.53 6.01-9.907 5.42-13.665-.453-2.89-.25-3.25 1.838-3.25 1.29 0 5.088-.853 8.437-1.895 6.75-2.1 7.912-1.54 2.664 1.285-4.123 2.22-9.2 7.32-8.243 8.277.38.378 1.92-.46 3.428-1.86 5.168-4.806 7.968-6.08 11.79-5.364l3.56.668-3.18 3.623c-3.464 3.944-5.93 9.034-5.93 12.235 0 3.61 1.796 2.16 3.435-2.775 2.293-6.902 6.322-11.27 9.733-10.553 2.578.543 2.69.856 3.308 9.21.93 12.583 1.065 12.688 1.906 1.503.75-9.95.816-10.16 3.44-10.71 3.384-.713 7.3 3.478 9.833 10.518 1.807 5.03 3.344 6.32 3.344 2.808 0-3.02-2.336-8.04-5.473-11.76-1.526-1.81-2.606-3.438-2.4-3.615 2.824-2.43 4.848-2.423 8.517.034 2.12 1.42 4.868 3.513 6.103 4.65 1.236 1.135 2.553 1.758 2.927 1.383.953-.952-4.138-6.057-8.248-8.27-5.25-2.826-4.088-3.386 2.663-1.285 3.35 1.042 7.146 1.895 8.437 1.895 2.088 0 2.292.36 1.838 3.25-.59 3.758 2.73 12.134 5.42 13.665 2.352 1.34.7 3.913-4.38 6.82-5.468 3.127-6.402 2.91-6.414-1.485-.012-4.617-3.8-12.897-7.43-16.242l-2.704-2.492 3.07 6.492c4.705 9.942 3.954 17.266-2.15 20.988-1.802 1.098-3.776 1.998-4.387 2-.693.002-1.3-3.3-1.612-8.78-.453-7.96-2.253-14.155-4.52-15.558-.415-.258-.52 2.976-.23 7.187.75 10.884-.204 17.07-2.978 19.318-3.128 2.532-5.538 2.3-7.95-.764zm-42.1-29.9c0-.825.45-1.5 1-1.5s1 .675 1 1.5-.45 1.5-1 1.5-1-.675-1-1.5zm107.39.073c-.818-2.133-.053-5.862 1.293-6.305 1.646-.542 3.56 3.395 2.806 5.77-.724 2.28-3.3 2.616-4.098.535zm-5.29-.955c-.863-1.04-.662-1.92.853-3.74l1.982-2.378.033 3.19c.04 3.643-1.214 4.92-2.868 2.928zm11.86-.697c-.767-1.43-.813-2.466-.14-3.14 1.363-1.362 3.18-.092 3.18 2.22 0 2.818-1.743 3.346-3.04.92zm-116.96.26c0-1.207 1.898-2.616 2.592-1.923.252.252-.228 1.027-1.067 1.723-.95.79-1.524.865-1.524.2zm-7-3.18c0-1.1.45-2 1-2s1 .9 1 2-.45 2-1 2-1-.9-1-2zm3.76-.725c-.262-1.526-.837-3.675-1.278-4.775-.707-1.765-.49-1.716 1.86.424 2.978 2.715 3.314 4.288 1.276 5.98-1.11.92-1.475.6-1.857-1.63zm46.54.502c-.885-.977-1.95-1.777-2.37-1.777-.417 0-1.86-.98-3.207-2.18l-2.447-2.18 2.965-2.496c2.563-2.157 3.242-2.323 5-1.225 1.63 1.017 2.5 1.022 4.363.024 1.873-1.002 2.634-.99 3.896.056 1.282 1.064 2.008 1.066 3.976.013 2.133-1.142 2.74-1.008 5.33 1.17l2.92 2.457-2.448 2.18c-1.346 1.2-2.712 2.18-3.034 2.18-.323 0-1.428.762-2.457 1.693-2.613 2.366-10.375 2.418-12.488.084zm-57.3-.055c0-1.69 2.86-5.722 4.058-5.722 1.065 0 1.253 3.03.337 5.418-.723 1.884-4.393 2.138-4.393.304zm114.406-1.86c-2.814-3.157-7.16-4.666-15.662-5.436l-7.592-.688-.648-5.12c-.357-2.814-.884-5.944-1.17-6.954-.448-1.573-.233-1.68 1.506-.75 3.213 1.72 4.16 1.298 4.16-1.852 0-2.585.33-2.916 2.75-2.75 2.498.17 2.797-.18 3.266-3.812.485-3.765.588-3.872 1.75-1.816.68 1.202 1.234 3.053 1.234 4.115 0 1.06.934 3.117 2.075 4.568 2.268 2.884 1.876 3.306-3.567 3.84-1.832.178-3.113.933-3.305 1.946-.33 1.735 3.017 3.21 9.796 4.318 3.253.532 3.675.286 5.97-3.478 2.66-4.367 6.49-7.445 8.058-6.477.535.33.972 2.824.972 5.542 0 4.533-.195 4.94-2.375 4.94-4.383 0-8.626 1.24-8.626 2.518 0 1.985 2.435 2.474 12.832 2.582 5.317.054 10.66.392 11.87.75 2.162.638 2.168.694.368 3.07l-1.835 2.42-3.828-1.816c-4.895-2.323-9.02-2.187-12.538.414-3.41 2.52-3.147 2.525-5.465-.076zm-119-4.014c-.39-.633.118-1.758 1.132-2.5 2.188-1.6 2.507-1.622 4.462-.314 1.298.87 1.24 1.203-.44 2.485-2.33 1.775-4.186 1.894-5.154.328zm15.094-2.484c-2.517-2.265-3.052-2.43-3.323-1.032-.685 3.537-3.176.86-3.176-3.414 0-2.35 2.237-2.464 5.567-.282 2.915 1.91 9.933 1.436 15.944-1.076 3.148-1.315 3.54-1.796 2.49-3.06-.685-.825-2.765-1.5-4.622-1.5-3.688 0-4.226-1.294-1.846-4.44.807-1.07 1.468-2.786 1.468-3.817 0-1.03.555-2.857 1.234-4.06 1.162-2.055 1.265-1.948 1.75 1.817.47 3.633.77 3.983 3.266 3.812 2.42-.166 2.75.165 2.75 2.75 0 3.198 2.445 4.04 4.913 1.688 1.066-1.016 1.21-.876.772.75-.298 1.1-.833 4.3-1.19 7.113l-.646 5.114-6.675.62c-3.672.342-8.7.868-11.176 1.17-3.9.474-4.9.188-7.5-2.153zm104-.364c-.34-.55.11-1 1-1s1.34.45 1 1c-.34.55-.79 1-1 1-.21 0-.66-.45-1-1zm5 0c-.34-.55.11-1 1-1s1.34.45 1 1c-.34.55-.79 1-1 1-.21 0-.66-.45-1-1zm6 0c-.34-.55.11-1 1-1s1.34.45 1 1c-.34.55-.79 1-1 1-.21 0-.66-.45-1-1zm6 0c-.34-.55-.14-1 .44-1 .584 0 1.06.45 1.06 1s-.198 1-.44 1c-.243 0-.72-.45-1.06-1zm5 0c-.34-.55.11-1 1-1s1.34.45 1 1c-.34.55-.79 1-1 1-.21 0-.66-.45-1-1zm-78.763-3.69c-1.37-1.373-2.11-1.46-4.214-.502-2.424 1.105-2.52 1.036-1.92-1.353.614-2.453.527-2.5-3.486-1.858l-4.116.66v-3.58c0-2.366.593-3.91 1.75-4.56 3.317-1.862-1.24-2.417-6.703-.815l-5.046 1.48v-3.017c0-2.817-.197-2.976-3-2.415-2.913.583-3 .49-3-3.208 0-4.732-.69-5.473-3.354-3.607-1.15.806-2.97 1.465-4.043 1.465-1.924 0-1.924-.032.038-2.25 1.095-1.238 2.783-3.525 3.752-5.084.97-1.558 3.415-3.515 5.435-4.35 2.02-.833 4.46-2.215 5.422-3.07 1.643-1.46 1.752-1.224 1.774 3.85.03 6.75 1.42 12.936 3.154 14.035.727.462 3.572.85 6.322.86 6.225.026 11.632 1.484 14.67 3.955 2.09 1.7 2.503 1.74 4.014.38 2.71-2.438 8.898-4.233 14.816-4.296 3.025-.034 6.113-.45 6.862-.924 1.616-1.024 3.034-7.67 3.095-14.51.04-4.597.154-4.808 1.794-3.35.963.855 3.354 2.217 5.314 3.025 4.33 1.788 12.09 11.73 9.157 11.73-.977 0-2.717-.66-3.867-1.465-2.664-1.866-3.354-1.125-3.354 3.607 0 3.698-.087 3.79-3 3.208-2.806-.56-3-.404-3 2.433v3.033l-4.88-1.56c-5.236-1.675-10.264-1.044-6.87.86 1.158.65 1.75 2.195 1.75 4.56v3.58l-4.116-.66c-4.013-.64-4.1-.594-3.484 1.86.597 2.38.495 2.453-1.88 1.37-2.052-.934-2.85-.838-4.354.523-1.725 1.56-1.957 1.54-3.673-.357l-1.83-2.024-2.132 2c-1.986 1.867-2.242 1.89-3.794.34zm71.264-4.25c0-2.72.432-5.21.96-5.535 1.407-.87 9.04 6.385 9.04 8.59 0 1.595-.77 1.885-5 1.885h-5v-4.94zm-138.846-2.81c-11.506-11.366-14.107-17.766-3.44-8.466 8.86 7.726 13.586 12.922 12.842 14.126-1.205 1.95-2.467 1.19-9.402-5.66zM172.574 193c-.34-.55.11-1 1-1s1.34.45 1 1c-.34.55-.79 1-1 1-.21 0-.66-.45-1-1zm0-5c-.34-.55.11-1 1-1s1.34.45 1 1c-.34.55-.79 1-1 1-.21 0-.66-.45-1-1zm-.5-6.14c0-.627-.78-1.71-1.73-2.405-1.608-1.175-1.548-1.45.843-3.84l2.575-2.576 2.33 2.48 2.33 2.48-2.348 2.5c-2.524 2.687-4 3.19-4 1.36zm-64.36-3.304c-1.023-.79-5.358-1.743-9.634-2.116-4.275-.373-8.388-1.057-9.14-1.52-1.082-.67-1.428-6.037-1.665-25.882l-.3-25.038h47.1v23.435c0 12.89-.44 24.59-.976 26-.89 2.336-1.49 2.57-6.75 2.61-3.177.023-7.576.728-9.776 1.565-6.33 2.408-6.892 2.468-8.86.946zm-.64-7.056c1-1.203.973-1.83-.127-3.164-1.25-1.516-1.163-1.552.997-.4 1.303.694 2.593 2.118 2.866 3.163.523 1.998 3.726 2.527 6.12 1.01.774-.49 2.772-.423 4.66.157 5.176 1.588 6.495.608 5.32-3.95-.543-2.1-.982-4.584-.977-5.522.005-.973-2.126-3.018-4.97-4.768-4.643-2.857-4.898-2.91-3.77-.795.663 1.247 2.114 3.5 3.223 5.006 1.11 1.505 1.77 2.982 1.473 3.28-.3.3-1.357-.696-2.35-2.21-4.073-6.217-7.466-7.887-7.466-3.678 0 .832-.707 2.22-1.57 3.084-1.43 1.43-1.72 1.426-3.18-.034-1.307-1.31-1.392-2.073-.455-4.13 1.438-3.156 6.195-5.154 12.135-5.095 4.228.042 4.593.25 4.886 2.795.175 1.512.796 2.75 1.38 2.75 1.665 0 .107-7.305-1.864-8.747-1.855-1.356-1.427-1.61 1.086-.646.87.334 1.582 1.46 1.582 2.5s.45 1.893 1 1.893c1.647 0 1.136-2.558-1.072-5.365-2.392-3.04-3.59-3.252-6.007-1.064-1.585 1.436-2.115 1.387-6.08-.557-2.387-1.172-3.216-1.843-1.84-1.49 7.357 1.88 7.37 1.88 6.55-.125-1.643-4.012-1.886-5.723-.708-4.995.636.393 1.157 1.363 1.157 2.156 0 .792.396 1.44.88 1.44 1.3 0 3.438-5.73 2.777-7.452-.917-2.392-5.548-3.043-8.643-1.215-3.195 1.887-4.013 1.378-4.013-2.5 0-3.195-.755-3.485-3.56-1.365-2.398 1.815-4.43 1.943-4.472.282-.017-.688-.753-2.15-1.634-3.25-1.202-1.5-1.46-1.58-1.027-.32.318.922.88 3.397 1.247 5.5.606 3.45.532 3.64-.76 1.96-1.36-1.775-1.556-1.71-4.152 1.375-2.75 3.27-2.91 5.284-.244 3.07 1.19-.986 1.36-.862.952.694-.335 1.277.352 2.45 2.11 3.6 3.186 2.088 2.354 3.957-1.394 3.134-4.08-.896-5.466 1.278-4.084 6.41.603 2.242 1.514 4.076 2.023 4.076 1.503 0 3.045-3.71 2.324-5.592-.476-1.242-.306-1.514.6-.954.835.516 1.044 1.85.614 3.914-.36 1.723-.903 4.932-1.21 7.132-.305 2.2-.95 4.49-1.434 5.092-1.05 1.305-.148 2.408 1.97 2.408 1.046 0 1.21-.326.51-1.023-1.498-1.5-.464-6.587 1.745-8.586 1.813-1.64 1.978-1.637 3.224.067 1.127 1.543.985 2.12-1.017 4.123-1.28 1.28-2.33 3.16-2.33 4.175 0 3.868 4.58 5.664 7 2.745zm-4.5-2.5c-.34-.55-.14-1 .44-1 .584 0 1.06.45 1.06 1s-.198 1-.44 1c-.243 0-.72-.45-1.06-1zm-79.833 4.333c-1.284-1.284-.67-3.272.834-2.695.825.317 1.5 1.203 1.5 1.97 0 1.47-1.212 1.847-2.333.725zM12.575 170c-.34-.55-1.85-1-3.36-1-2.996 0-5.14-1.595-5.14-3.825 0-1.046.788-1.267 2.96-.833 3.75.75 5.002-1.026 1.628-2.31-2.998-1.138-4.606-5.773-2.473-7.124 2.277-1.443 3.853-1.044 6.297 1.592 3.065 3.308 3.587 3.162 3.587-1 0-1.925.44-3.5.974-3.5 1.174 0 4.026 5.278 4.026 7.45 0 .853.45 1.55 1 1.55s1 .45 1 1-.648 1-1.44 1c-.793 0-1.727.46-2.075 1.025-.35.563-.095.9.565.75 2.155-.494 2.122 2.052-.055 4.23-1.695 1.694-2.422 1.886-3.563.94-1.02-.847-1.433-.866-1.433-.067 0 1.392-1.665 1.473-2.5.122zm4.324-6.336c.393-2.027-2.532-3.356-4.05-1.84-.786.788-.726 1.53.22 2.667 1.56 1.883 3.38 1.49 3.83-.826zM14.074 163c0-.55.45-1 1-1s1 .45 1 1-.45 1-1 1-1-.45-1-1zm-3-3.94c0-1.18-1.95-2.443-2.667-1.727-.716.717.546 2.667 1.726 2.667.518 0 .94-.423.94-.94zm38.07.843c-2.428-.97-2.427-.97 2.5-5.99 4.784-4.868 4.94-4.94 5.247-2.465.37 2.97.938 3.113 3.962.995 1.74-1.22 2.222-1.268 2.222-.222 0 2.392-3.188 5.96-6.598 7.386-3.825 1.598-4.052 1.607-7.33.297zm16.965-.837C64.79 156.6 64.77 153 66.073 153c.55 0 1 .675 1 1.5 0 1.993.99 1.897 2.558-.248 1.916-2.62 2.524-1.127 1.242 3.05-1.246 4.058-3.158 4.766-4.765 1.764zm84.164-1.765c-1.28-4.175-.673-5.668 1.242-3.048 1.57 2.145 2.558 2.24 2.558.248 0-.825.45-1.5 1-1.5 1.305 0 1.284 3.6-.035 6.066-1.608 3.002-3.52 2.294-4.766-1.765zm14.188 2.72c-2.506-1.013-6.388-5.698-6.388-7.712 0-1.188.365-1.166 2.223.135 2.942 2.062 3.777 1.964 3.777-.443 0-2.963 1.352-2.46 5.384 2.003 4.22 4.673 4.41 5.55 1.366 6.367-2.834.76-3.74.71-6.362-.35zM33.54 155.048c-2.145-.87-5.026-3.83-4.358-4.478.497-.483 16.132-8.57 16.568-8.57 1.106 0 .05 4.168-1.176 4.638-.825.317-1.5.978-1.5 1.47 0 1.436 3.36 1.028 5.842-.71 1.258-.88 2.56-1.33 2.893-.996 1.03 1.03-4.028 5.766-8.236 7.708-4.32 1.994-6.847 2.23-10.035.938zm49.142-.855c-1.194-3.536-6.61-5.737-10.65-4.328-2.473.862-3.6.847-4.697-.064-.794-.657-2.865-1.105-4.602-.993-2.558.165-3.476-.356-4.825-2.736-1.31-2.312-2.475-3.006-5.46-3.255-3.105-.258-3.9-.77-4.374-2.815-.49-2.12-1.233-2.547-4.867-2.81l-4.288-.313.664-3.936c.728-4.308.703-4.332-5.882-5.43l-3.87-.646 2.62-2.737c1.442-1.505 2.622-3.253 2.622-3.885 0-.632-2.08-2.07-4.624-3.194-4.01-1.773-4.45-2.253-3.32-3.614.715-.863 2.85-2.364 4.744-3.336l3.443-1.766-4.45-2.608c-5.905-3.46-7.673-5.555-5.73-6.785.79-.5 3.098-.916 5.128-.925 4.835-.02 5.43-1.273 2.705-5.683-1.663-2.692-2.362-5.662-2.698-11.482-.25-4.317-.06-7.844.424-7.838.483.007 1.853 1.47 3.045 3.25a244.7 244.7 0 0 0 4.86 6.917c2.673 3.652 5.75 14.796 4.583 16.6-.335.517-2.125 1.718-3.977 2.667l-3.368 1.727 3.555 3.663 3.556 3.663-3.07 3.41-3.066 3.413 3.748 1.923c3.735 1.916 3.745 1.938 3.095 6.838L43.005 132H52.074v9.188l4.75-.635c4.547-.608 4.825-.502 6.497 2.48l1.747 3.117 2.64-2.075c3.344-2.63 8.357-2.657 11.66-.06 2.736 2.153 5.104 7.83 4.475 10.727-.316 1.454-.517 1.358-1.16-.55zm54.432.025c-.06-3.476 2.475-8.765 5.077-10.587 3.193-2.235 8.087-2.045 11.243.438l2.63 2.067 2.074-3.516c1.847-3.133 2.348-3.414 4.57-2.57 5.226 1.988 6.367 1.35 6.367-3.55V132H178.142l-.652-4.916c-.65-4.9-.64-4.922 3.097-6.838l3.748-1.923-3.068-3.412-3.068-3.41 3.555-3.663 3.555-3.663-3.368-1.727c-1.852-.95-3.642-2.15-3.977-2.668-1.167-1.804 1.91-12.948 4.583-16.6a244.718 244.718 0 0 0 4.86-6.918c1.19-1.78 2.56-3.243 3.045-3.25.483-.006.674 3.52.424 7.838-.337 5.82-1.035 8.79-2.7 11.482-2.725 4.41-2.128 5.663 2.706 5.683 2.03.01 4.337.424 5.127.924 1.94 1.227.177 3.323-5.693 6.763l-4.416 2.59 4.587 2.52c2.523 1.388 4.587 2.914 4.587 3.39 0 .478-2.025 1.736-4.5 2.797-2.475 1.06-4.5 2.36-4.5 2.888 0 .527 1.145 2.32 2.544 3.982l2.544 3.023-3.794.63c-6.495 1.082-6.53 1.116-5.804 5.418l.665 3.937-4.288.312c-3.635.263-4.376.69-4.868 2.81-.474 2.045-1.27 2.557-4.373 2.815-2.985.248-4.15.943-5.46 3.256-1.35 2.38-2.267 2.902-4.825 2.737-1.737-.112-3.808.336-4.602.994-1.085.903-2.23.925-4.622.09-4.052-1.412-8.608.304-10.616 3.998-1.387 2.55-1.42 2.56-1.46.33zm40.352-.203c-4.432-2.248-9.11-6.63-8.127-7.613.332-.333 1.634.115 2.892.996 2.48 1.738 5.842 2.146 5.842.71 0-.492-.675-1.153-1.5-1.47-.825-.316-1.5-1.745-1.5-3.175v-2.6l2.893 2.06c1.59 1.134 5.624 3.352 8.96 4.93l6.07 2.87-2.318 2.178c-3.4 3.194-8.3 3.607-13.214 1.115zM21.574 145.19c-3.794-2.408-6.88-5.844-5.815-6.473.447-.265 2.39-.79 4.314-1.165 1.925-.376 6.365-1.577 9.866-2.67 3.5-1.09 6.575-1.774 6.83-1.518 1.027 1.026-1.8 4.437-4.658 5.62-4.045 1.676-3.91 3.39.212 2.674a252.7 252.7 0 0 1 7.25-1.113c3.922-.54 3.88-.49-2.165 2.502-8.153 4.034-12.03 4.56-15.836 2.144zm167.5.386c-1.925-.735-4.962-1.885-6.75-2.554-3.962-1.485-4.323-3.452-.5-2.73 1.513.286 4.438.846 6.5 1.245 4.795.927 4.8-.472.01-3.037-4.37-2.34-6.003-6.26-2.11-5.064 1.292.397 5.725 1.615 9.85 2.706 11.19 2.96 10.62 2.566 7.9 5.48-2.837 3.036-7.083 5.395-9.6 5.334-.99-.024-3.375-.645-5.3-1.38zm-109.4-3.746c-4.457-3.236-6.46-3.47-10.742-1.256-1.674.865-3.136 1.428-3.248 1.25-.113-.178-.757-1.607-1.432-3.176-1.244-2.888-2.376-3.044-7.585-1.045-1.274.49-1.593-.104-1.593-2.96 0-3.77-1.95-5.643-5.875-5.643-2.904 0-3.42-1.528-1.667-4.92 1.866-3.608 1.898-4.067.29-4.125-.686-.025-2.543-.598-4.125-1.273l-2.876-1.23 2.823-3.354 2.824-3.356-3.22-2.877-3.22-2.876 3.596-1.716c3.07-1.464 3.512-2.086 3.018-4.245-.32-1.392-.844-5.005-1.166-8.03l-.587-5.5 1.95 3.038c1.07 1.67 5.42 6.208 9.667 10.082l7.72 7.044-1.69 5.817c-1.53 5.26-1.545 6.124-.168 9.012 1.89 3.965 7.01 6.508 13.105 6.508 4.77 0 5.668-.868 3.1-3-2.085-1.73-1.873-3 .5-3 1.1 0 2-.357 2-.794 0-.437 2.58-1.59 5.733-2.56 3.154-.97 7.17-2.86 8.923-4.198l3.19-2.43.678 3.09.678 3.088 3.443-3.336c2.858-2.772 3.6-3.085 4.382-1.848.518.818.948 2.024.957 2.68.033 2.666 2.137 2.254 3.138-.617.59-1.69 1.344-3.075 1.676-3.075.333 0 2.043 1.394 3.8 3.098l3.198 3.098.68-3.09.677-3.09 3.188 2.432c1.753 1.338 5.768 3.227 8.922 4.198 3.154.97 5.734 2.123 5.734 2.56 0 .437.9.794 2 .794 2.373 0 2.584 1.27.5 3-2.56 2.125-1.676 3 3.032 3 6.496 0 11.135-2.234 13.072-6.296 1.505-3.155 1.5-3.836-.066-9.223l-1.69-5.816 7.72-7.044c4.245-3.874 8.596-8.41 9.667-10.082l1.947-3.038-.587 5.5c-.322 3.025-.847 6.638-1.165 8.03-.497 2.17-.05 2.78 3.142 4.303l3.722 1.775-3.358 2.803-3.357 2.803 2.836 3.37 2.836 3.37-2.876 1.23c-1.582.674-3.438 1.247-4.126 1.272-1.563.056-1.563.052.25 4.39.825 1.975 1.5 3.83 1.5 4.123 0 .293-2.025.532-4.5.532h-4.5v4.607c0 3.804-.278 4.5-1.593 3.996-5.208-2-6.34-1.843-7.583 1.045-.675 1.57-1.32 2.998-1.432 3.176-.113.178-1.574-.385-3.248-1.25-4.323-2.236-6.282-1.98-10.993 1.432l-4.15 3.007v-9.925c0-5.458-.273-10.636-.607-11.506-.53-1.385-3.766-1.582-25.98-1.582H85.11l-.52 2.25c-.286 1.238-.632 6.336-.77 11.33l-.248 9.08-3.9-2.83zm-67.3-9.72c-1.762-1.112-3.89-3.348-4.727-4.968-2.02-3.907-1.29-4.15 12.26-4.11l10.667.035-2.36 1.966C26.77 126.236 24.363 127 22.02 127c-2.106 0-4.074.395-4.373.878-.724 1.17 4.273 2.103 11.8 2.204l6.124.08-3.22 1.41c-1.77.774-6.27 1.667-10 1.984-5.718.485-7.28.258-9.98-1.446zm179.434.473c-6.885-1.852-6.892-2.583-.026-2.583 7.318 0 12.453-.93 11.717-2.122-.3-.483-2.268-.878-4.374-.878-2.342 0-4.748-.764-6.19-1.967l-2.362-1.966 11-.018c6.05-.01 11.548.33 12.218.754 1.945 1.236-2.2 7.08-6.208 8.756-4.158 1.738-9.373 1.745-15.776.023zm-182.09-13.61c-1.573-.472-3.773-1.67-4.89-2.665-4.086-3.638-6.7-14.27-3.177-12.917C6.61 105.296 20.9 109 23.28 109c3.318 0 3.64 1.478.668 3.068-1.36.727-4.516.91-8.75.503-6.043-.578-6.455-.5-4.7.885 1.058.836 3.533 1.788 5.5 2.115 4.255.71 13.076 3.414 13.076 4.01 0 .775-16.468.258-19.357-.608zm185.31-.572c1.898-.864 6.043-2.028 9.21-2.586 3.166-.557 6.318-1.69 7.003-2.516 1.098-1.32.454-1.417-5.332-.797-4.313.463-7.314.314-8.707-.432-2.97-1.59-2.65-3.068.667-3.068 2.417 0 16.695-3.715 21.784-5.668 1.522-.584 1.664-.154 1.168 3.54-1.287 9.593-5.594 12.48-19.156 12.835-9.876.26-10.015.233-6.635-1.306zm-104.953-4.615c.005-1.768 3.3-15.353 4.207-17.343l1.196-2.623 2.77 3.34 2.772 3.34.027-3.77.027-3.77 3.946 2.013c2.17 1.107 4.407 2.804 4.97 3.77.582 1 1.036 1.21 1.054.492.033-1.376 5.758-5.225 7.78-5.23.74-.003 1.26 1.324 1.277 3.245l.028 3.25 2.77-3.34 2.773-3.34 1.196 2.622c1.487 3.264 4.35 16.75 3.694 17.405-.265.265-2.265-1.392-4.444-3.682-2.18-2.29-4.15-4.165-4.38-4.165-.23 0-1 1.4-1.708 3.11l-1.288 3.11-1.738-3.36c-2.03-3.923-2.568-3.957-4.96-.31l-1.78 2.713-1.62-3.13c-.89-1.724-1.822-3.133-2.07-3.133-.247 0-1.285 1.627-2.305 3.615l-1.855 3.616-1.29-3.115c-1.597-3.854-2.114-3.87-4.866-.147-1.808 2.446-6.184 5.856-6.18 4.817zm-72.86-9.25C4.87 99.95-.298 93.592.332 83.77c.2-3.15.678-6.04 1.06-6.42.38-.38 2.377.728 4.437 2.464 3.375 2.846 14.988 10.934 19.84 13.82 2.416 1.436 1.59 2.3-2.904 3.03-2.927.474-4.572-.06-9.31-3.024-3.166-1.98-5.907-3.448-6.092-3.263-1.088 1.087 1.58 3.7 7.52 7.365 7.272 4.488 12.554 9.295 10.114 9.206-.783-.03-4.286-1.115-7.783-2.414zm180.422-.667c2.234-1.868 6.606-4.94 9.716-6.823 4.972-3.014 7.483-5.617 6.43-6.668-.184-.185-2.925 1.283-6.09 3.263-4.738 2.963-6.384 3.498-9.31 3.023-4.494-.73-5.32-1.593-2.904-3.03 4.85-2.885 16.463-10.973 19.84-13.82 2.06-1.735 4.037-2.863 4.394-2.506 1.297 1.297 1.563 10.55.404 14.06-2.13 6.453-11.603 12.68-23.044 15.144l-3.5.755 4.063-3.397zM89.754 93.5c-.365-3.3-.964-7.084-1.33-8.408-.602-2.178-.436-2.337 1.742-1.67 6.194 1.9 7.26 1.937 6.572.226-.365-.906-.928-2.3-1.25-3.094-.49-1.21-.044-1.27 2.75-.366 1.835.593 3.995 1.395 4.8 1.782 1.388.666 5.28 10.11 4.492 10.904-.204.206-1.99-.582-3.97-1.75-4.507-2.66-4.486-2.66-4.486.487v2.612l-2.064-2.36c-1.135-1.3-2.273-1.912-2.528-1.362-.255.55-1.273 2.8-2.263 5l-1.8 4-.666-6zm38.79.665l-1.926-5.336-2.272 2.64-2.272 2.642v-2.556c0-3.085.01-3.084-4.443-.457-3.5 2.065-3.556 2.067-3.556.12 0-2.852 2.852-9.254 4.282-9.612.67-.168 2.68-.784 4.468-1.37 3.567-1.168 3.74-1.023 2.207 1.843-1.45 2.714 1.28 3.65 4.5 1.54 1.342-.878 2.66-1.242 2.928-.807.27.435-.068 4.367-.748 8.74l-1.237 7.947-1.928-5.335zM20.375 85.25C10.627 75.846 7.69 71.1 7.625 64.65c-.05-5.157 3.122-13.325 5.048-12.996.496.085 4.086 4.82 7.978 10.524 6.302 9.235 7.027 10.782 6.634 14.146-.433 3.71-.477 3.745-2.46 1.977-1.11-.99-3.797-4.197-5.972-7.128-2.176-2.93-4.195-5.088-4.487-4.796-1.403 1.403 1.303 6.113 7.208 12.548 3.576 3.896 6.5 7.72 6.5 8.498 0 .778.274 2.126.608 2.996 1.192 3.103-1.41 1.484-8.305-5.168zm172.093 5.168c.334-.87.607-2.23.607-3.025 0-.794 2.712-4.358 6.026-7.92 5.414-5.82 7.974-9.846 7.974-12.538 0-2.023-1.624-.736-4.184 3.317-1.476 2.336-4.01 5.52-5.632 7.072l-2.948 2.824-.434-3.723c-.382-3.27.425-5.038 6.632-14.53 3.886-5.944 7.516-10.69 8.066-10.547 2.154.562 5 8.21 4.95 13.302-.064 6.42-2.967 11.135-12.68 20.6-6.772 6.6-9.595 8.342-8.377 5.168zM59.074 85.954c0-.575 3.842-2.89 8.538-5.143 7.683-3.686 8.81-3.972 11.25-2.857l2.712 1.24-5 1.903c-2.75 1.046-5.58 1.903-6.29 1.903s-3.054.9-5.21 2c-4.39 2.24-6 2.496-6 .954zm97-.954c-1.925-1.054-4.175-1.935-5-1.96-.825-.022-3.75-.898-6.5-1.944l-5-1.903 2.753-1.258c2.5-1.144 3.53-.873 11.25 2.952 4.674 2.315 8.497 4.638 8.497 5.16 0 1.447-2.122 1.076-6-1.047zm-65.867-5.21c-1.638-1.584-2.51-1.905-2.833-1.04-.875 2.344-3.206 1.254-8.618-4.03-5.875-5.735-7.76-9.422-5.54-10.83.747-.472 4.058-.88 7.358-.907 6.383-.052 17.13-1.287 21.863-2.514l2.862-.743-1.722 2.626c-1.63 2.49-1.63 2.662.028 3.298 1.66.638 1.66.736-.017 1.963-1.064.777-1.516 1.943-1.137 2.93.432 1.127-.016 1.81-1.427 2.18-2.047.535-2.046.548.167 2.903 3.626 3.86 1.68 4.137-6.3.896-1.33-.54-1.747-.033-2 2.438l-.32 3.12-2.366-2.29zM81.074 67.5l2.5-1.43-3.25-.035c-2.238-.024-3.25.432-3.25 1.465 0 1.84.78 1.84 4 0zm47 11.567c0-2.728-.295-3.162-1.75-2.572-8.147 3.302-10.007 3.005-6.246-1 1.942-2.066 2.057-2.495.67-2.495-1.103 0-1.674-.823-1.674-2.417 0-1.33-.562-2.606-1.25-2.837-.986-.332-.992-.733-.028-1.902.975-1.182.892-1.95-.41-3.81-1.618-2.31-1.606-2.325 1.277-1.577 4.78 1.238 15.504 2.474 21.91 2.526 3.3.026 6.612.435 7.358.907 2.153 1.364.498 4.658-5.348 10.646-5.26 5.39-7.914 6.66-8.787 4.214-.306-.856-1.277-.486-3.084 1.174l-2.636 2.425v-3.283zm16-11.567c0-1.033-1.012-1.49-3.25-1.465l-3.25.036 2.5 1.43c3.22 1.84 4 1.84 4 0zm-86.05 8.407c-1.95-3.642-.31-6.86 4.6-9.032 2.46-1.088 4.912-1.707 5.45-1.376.535.33 2.4 2.674 4.143 5.207l3.168 4.605-2.967-.593c-3.508-.703-10.66.725-11.16 2.227-.563 1.69-2.024 1.22-3.234-1.04zM68.074 68c0-.55-.45-1-1-1s-1 .45-1 1 .45 1 1 1 1-.45 1-1zm90.56 8.468c-1.083-.818-4.07-1.468-6.75-1.468-2.646 0-4.81-.382-4.81-.85 0-.467 1.37-2.74 3.045-5.053 2.488-3.436 3.446-4.08 5.25-3.523 7.243 2.233 10.072 6.002 7.754 10.333-1.315 2.457-1.89 2.53-4.49.56zM155.073 68c0-.55-.45-1-1-1s-1 .45-1 1 .45 1 1 1 1-.45 1-1zm19.624-.61c-.91-2.865 4.855-18.8 6.96-19.238 2.996-.623 3.326 2.037 1.028 8.28-1.227 3.338-2.04 6.954-1.807 8.036.362 1.677.195 1.778-1.124.683-1.312-1.088-1.768-.864-2.99 1.467-1.324 2.528-1.49 2.59-2.068.774zM44.055 65.964c-.953-1.78-1.362-1.896-2.738-.778-1.39 1.13-1.526 1.07-.968-.417.356-.953-.425-4.583-1.736-8.067-2.444-6.49-2.167-9.18.88-8.548 1.502.31 5.706 9.844 7.267 16.48.688 2.92-1.325 3.91-2.705 1.33zm22.52-5.908c-2.686-1.1-5.1-3.9-6.972-8.092-.85-1.904-2.556-4.736-3.788-6.29-2.204-2.783-2.21-2.852-.3-4.25 4.048-2.967 5.164-1.78 7.457 7.922.63 2.665 2.314 6.377 3.742 8.25 1.43 1.873 2.432 3.376 2.23 3.342-.204-.035-1.27-.432-2.37-.882zm5.193.306c-1.587-1.587.99-2.36 7.865-2.36 7.62 0 9.904 1.257 4.316 2.375-4.063.812-11.364.804-12.182-.014zm17.306-.235c0-.62 1.125-1.125 2.5-1.125 3.01 0 6.165-2.954 8.1-7.588 1.07-2.554 2.037-3.412 3.855-3.412 1.334 0 2.658.375 2.94.833.94 1.518-4.216 7.854-7.755 9.533-4.817 2.286-9.64 3.166-9.64 1.76zm35.684-.574c-4.443-1.584-7.342-3.99-9.246-7.67-1.557-3.01-1.06-3.88 2.215-3.88 1.695 0 2.704.92 3.746 3.412 1.936 4.634 5.09 7.588 8.1 7.588 1.376 0 2.5.45 2.5 1 0 1.356-2.723 1.19-7.315-.45zm9.01.81c-1.587-1.587.99-2.36 7.865-2.36 7.62 0 9.904 1.257 4.316 2.375-4.063.812-11.364.804-12.182-.014zm20.535-2.55c1.5-1.99 3.243-5.8 3.873-8.465 2.285-9.67 3.412-10.883 7.4-7.966 1.846 1.348 1.845 1.437-.057 4.156-1.07 1.53-3.07 4.83-4.446 7.34-1.424 2.598-4.006 5.42-6 6.558l-3.5 2 2.73-3.623zm-84.03-2.01c-1.98-1.982-1.46-8.54.864-10.863 2.81-2.81 4.256-2.035 5.212 2.803 1.166 5.9 3.178 7.217 5.162 3.38.86-1.66 1.562-3.916 1.562-5.01 0-3.133 1.923-3.53 4.667-.965 2.102 1.965 2.433 3 2.002 6.25-.284 2.14-1.113 4.27-1.842 4.734-2.07 1.312-16.25 1.047-17.626-.33zm62.373-.37c-2.28-2.28-1.927-6.905.764-10.034 2.853-3.317 4.207-2.657 5.024 2.452 1.21 7.575 4.793 7.378 6.4-.353.958-4.613 2.406-5.33 5.178-2.557 2.323 2.323 2.844 8.88.862 10.862-1.876 1.876-16.275 1.582-18.228-.37zm-53.89-4.082c-.845-.844-.892-5.637-.077-7.76.945-2.466 2.396-.807 2.38 2.72-.018 3.484-1.223 6.12-2.304 5.04zm61.985-1.015c-.988-.988-.807-7.128.23-7.768 1.15-.71 2.104 1.793 2.104 5.517 0 2.795-.91 3.674-2.333 2.25zM41.448 44.49c1.58-.825 4.41-2.847 6.285-4.495 3.206-2.815 7.635-3.948 8.7-2.225.262.423-2.036 2.448-5.105 4.5-3.865 2.583-6.683 3.728-9.167 3.724l-3.586-.006 2.873-1.5zm59.127.51c.342-.552 4.844-1 10.06-1 5.626 0 9.44.404 9.44 1 0 .6-4.02 1-10.06 1-6.45 0-9.836-.36-9.44-1zm69.247-2.73c-3.068-2.052-5.365-4.077-5.104-4.5 1.065-1.723 5.494-.59 8.7 2.225 1.876 1.648 4.705 3.67 6.285 4.494l2.874 1.498-3.586.006c-2.484.004-5.302-1.14-9.167-3.724zm-70.746-1.33c0-.58.45-.78 1-.44s1 .816 1 1.06c0 .242-.45.44-1 .44s-1-.477-1-1.06zm5 .06c0-.55.45-1 1-1s1 .45 1 1-.45 1-1 1-1-.45-1-1zm11-.06c0-.58.45-.78 1-.44s1 .816 1 1.06c0 .242-.45.44-1 .44s-1-.477-1-1.06zm5.5.06c.34-.55.817-1 1.06-1 .242 0 .44.45.44 1s-.476 1-1.06 1c-.58 0-.78-.45-.44-1zm-42-2c-.4-.646-.276-1.624.274-2.174.667-.667 1.242-.61 1.726.174.4.646.276 1.624-.274 2.174-.667.667-1.242.61-1.726-.174zm62 0c-.4-.646-.276-1.624.274-2.174.667-.667 1.242-.61 1.726.174.4.646.276 1.624-.274 2.174-.667.667-1.242.61-1.726-.174zm-44.96-5.182c-2.038-6.857-2.006-7.108 1.36-10.712 4.274-4.574 5.77-4.06 7.697 2.644.91 3.163 2.285 6.988 3.055 8.5 2.766 5.432 5.514 2.763 8.752-8.5 1.91-6.644 3.333-7.168 7.674-2.827 3.38 3.378 3.45 3.94 1.385 10.895L123.997 39H97.152l-1.54-5.182zm13.587-1.58c-.58-1.09-1.5-3.95-2.042-6.358-1.616-7.19 2.92-11.856 6.385-6.568 1.32 2.013 1.34 2.994.15 7.573-1.677 6.467-3.032 8.08-4.492 5.352zm-32.107-.715c-1.053-1.27-.952-1.543.61-1.64 3.534-.225 6.32.562 5.288 1.493-1.546 1.395-4.794 1.476-5.897.147zm62.73.705c-.96-.206-1.75-.76-1.75-1.228 0-1.073 2.943-1.737 5.25-1.185 3.814.912.42 3.253-3.5 2.413zm-30.11-17.922c-1.195-1.195-.645-3.306.86-3.306.826 0 1.5.648 1.5 1.44 0 1.672-1.426 2.8-2.36 1.866zM108.784 6c-.716-2.743.256-6 1.79-6 1.537 0 2.508 3.257 1.79 6-.674 2.582-2.904 2.582-3.58 0z" fill="#f39f18"/></svg>